<svg width="43" height="43" viewBox="0 0 43 43" fill="none" xmlns="http://www.w3.org/2000/svg">
<g clip-path="url(#clip0_21_1737)">
<path d="M37.1322 17.037C32.8269 10.9128 27.5531 12.2636 24.0635 13.1576C23.6957 13.2518 23.3355 13.3441 22.9946 13.4227C23.4335 9.6629 25.4451 6.73916 29.1085 4.51886L27.6549 2.12044C25.7177 3.29446 24.151 4.66517 22.9558 6.22366C22.511 4.80827 21.8158 3.62015 20.8693 2.67373C19.0472 0.85161 16.3355 -0.0476093 12.8104 0.00194135L11.447 0.0210058L11.4279 1.38449C11.3786 4.90981 12.2776 7.62124 14.0999 9.44345C15.5999 10.9435 17.7045 11.8152 20.3676 12.0501C20.2814 12.5102 20.2164 12.9805 20.1715 13.4603C19.7826 13.3743 19.3648 13.2674 18.9366 13.1577C15.4468 12.2639 10.173 10.9129 5.86791 17.0372C3.81055 19.9639 3.18881 23.9249 4.06997 28.4922C5.11062 33.8868 8.23929 39.4802 11.3476 41.5029C15.136 43.9684 18.3324 42.804 20.2421 42.1083C20.705 41.9396 21.2809 41.7298 21.5002 41.7298C21.7195 41.7298 22.2955 41.9397 22.7583 42.1083C23.7933 42.4853 25.2059 43 26.8861 43C28.3062 43 29.9174 42.6322 31.6528 41.5029C34.7612 39.4801 37.8898 33.8866 38.9305 28.4922C39.8113 23.9248 39.1895 19.9637 37.1322 17.037Z" fill="black"/>
<path d="M37.1322 17.037C32.8269 10.9128 27.5531 12.2636 24.0635 13.1576C23.6957 13.2518 23.3355 13.3441 22.9946 13.4227C23.4335 9.6629 25.4451 6.73916 29.1085 4.51886L27.6549 2.12044C25.7177 3.29446 24.151 4.66517 22.9558 6.22366C22.511 4.80827 21.8158 3.62015 20.8693 2.67373C19.0472 0.85161 16.3355 -0.0476093 12.8104 0.00194135L11.447 0.0210058L11.4279 1.38449C11.3786 4.90981 12.2776 7.62124 14.0999 9.44345C15.5999 10.9435 17.7045 11.8152 20.3676 12.0501C20.2814 12.5102 20.2164 12.9805 20.1715 13.4603C19.7826 13.3743 19.3648 13.2674 18.9366 13.1577C15.4468 12.2639 10.173 10.9129 5.86791 17.0372C3.81055 19.9639 3.18881 23.9249 4.06997 28.4922C5.11062 33.8868 8.23929 39.4802 11.3476 41.5029C15.136 43.9684 18.3324 42.804 20.2421 42.1083C20.705 41.9396 21.2809 41.7298 21.5002 41.7298C21.7195 41.7298 22.2955 41.9397 22.7583 42.1083C23.7933 42.4853 25.2059 43 26.8861 43C28.3062 43 29.9174 42.6322 31.6528 41.5029C34.7612 39.4801 37.8898 33.8866 38.9305 28.4922C39.8113 23.9248 39.1895 19.9637 37.1322 17.037Z" fill="url(#paint0_linear_21_1737)"/>
</g>
<defs>
<linearGradient id="paint0_linear_21_1737" x1="31.0554" y1="-33.4684" x2="-12.5407" y2="-22.7042" gradientUnits="userSpaceOnUse">
<stop stop-color="#00C8DC"/>
<stop offset="1" stop-color="#0ABE50"/>
</linearGradient>
<clipPath id="clip0_21_1737">
<rect width="43" height="43" fill="white"/>
</clipPath>
</defs>
</svg>
