<svg width="172" height="50" viewBox="0 0 172 50" fill="none" xmlns="http://www.w3.org/2000/svg">
<g clip-path="url(#clip0_21_2356)">
<path d="M66.9477 17.7861C66.1358 17.2886 65.4488 16.5423 65.0117 15.6095C64.5745 14.6766 64.3247 13.5572 64.3247 12.3135C64.3247 11.0697 64.5745 9.95027 65.0117 9.01743C65.4488 8.0846 66.1358 7.40052 66.9477 6.90301C67.7595 6.40549 68.7587 6.15674 69.8829 6.15674C70.7572 6.15674 71.569 6.34331 72.256 6.65425C72.943 6.9652 73.5675 7.46271 74.0046 8.0846C74.4418 8.70649 74.7541 9.39057 74.879 10.199V10.2612H73.0054L72.943 10.0746C72.8181 9.57714 72.6307 9.204 72.3185 8.83087C72.0062 8.51992 71.6939 8.20898 71.2568 8.0846C70.8196 7.89803 70.3825 7.83584 69.8204 7.83584C69.071 7.83584 68.4465 8.02241 67.8844 8.39554C67.3224 8.76868 66.8852 9.26619 66.6354 9.95027C66.3231 10.6343 66.1982 11.4428 66.1982 12.3756C66.1982 13.3085 66.3231 14.1169 66.6354 14.801C66.9477 15.4851 67.3848 15.9826 67.8844 16.3557C68.4465 16.7289 69.071 16.9154 69.8204 16.9154C70.3825 16.9154 70.8196 16.8533 71.2568 16.6667C71.6939 16.4801 72.0062 16.2314 72.3185 15.8582C72.6307 15.4851 72.8181 15.112 73.0054 14.5523V14.4901H74.879V14.5523C74.7541 15.3607 74.4418 16.0448 74.0046 16.6667C73.5675 17.2886 72.943 17.7239 72.256 18.097C71.569 18.408 70.7572 18.5945 69.8829 18.5945C68.7587 18.5324 67.7595 18.2836 66.9477 17.7861Z" fill="white"/>
<path d="M76.6277 6.34326H78.5012V18.3457H76.6277V6.34326Z" fill="white"/>
<path d="M80.7495 6.34326H85.4334C86.2452 6.34326 86.9322 6.46764 87.5567 6.77858C88.1812 7.08953 88.6184 7.52485 88.9306 8.02237C89.2429 8.58207 89.4302 9.20396 89.4302 9.95023C89.4302 10.7587 89.2429 11.505 88.8057 12.0647C88.3686 12.6865 87.8065 13.1219 87.1195 13.3706L89.8049 18.2836H87.6191L85.1835 13.6816H85.1211H85.0586H82.623V18.2836H80.7495V6.34326ZM85.246 12.189C85.933 12.189 86.495 12.0025 86.9322 11.6293C87.3069 11.2562 87.4942 10.6965 87.4942 10.0124C87.4942 9.32834 87.3069 8.83082 86.8697 8.45769C86.4326 8.08456 85.8705 7.89799 85.1835 7.89799H82.623V12.189H85.246Z" fill="white"/>
<path d="M93.4272 17.7861C92.6153 17.2886 91.9283 16.5423 91.4912 15.6095C91.054 14.6766 90.8042 13.5572 90.8042 12.3135C90.8042 11.0697 91.054 9.95027 91.4912 9.01743C91.9283 8.0846 92.6153 7.40052 93.4272 6.90301C94.239 6.40549 95.2382 6.15674 96.3624 6.15674C97.2367 6.15674 98.0485 6.34331 98.7355 6.65425C99.4225 6.9652 100.047 7.46271 100.484 8.0846C100.921 8.70649 101.234 9.39057 101.358 10.199V10.2612H99.4849L99.4225 10.0746C99.2976 9.57714 99.1102 9.204 98.798 8.83087C98.4857 8.51992 98.1734 8.20898 97.7363 8.0846C97.2991 7.89803 96.862 7.83584 96.2999 7.83584C95.5505 7.83584 94.926 8.02241 94.3639 8.39554C93.8019 8.76868 93.3647 9.26619 93.1149 9.95027C92.8026 10.6343 92.6777 11.4428 92.6777 12.3756C92.6777 13.3085 92.8026 14.1169 93.1149 14.801C93.4272 15.4851 93.8643 15.9826 94.3639 16.3557C94.926 16.7289 95.5505 16.9154 96.2999 16.9154C96.862 16.9154 97.2991 16.8533 97.7363 16.6667C98.1734 16.4801 98.4857 16.2314 98.798 15.8582C99.1102 15.4851 99.2976 15.112 99.4849 14.5523V14.4901H101.358V14.5523C101.234 15.3607 100.921 16.0448 100.484 16.6667C100.047 17.2886 99.4225 17.7239 98.7355 18.097C98.0485 18.408 97.2367 18.5945 96.3624 18.5945C95.2382 18.5324 94.239 18.2836 93.4272 17.7861Z" fill="white"/>
<path d="M103.107 6.34326H104.98V16.7288H110.601V18.3457H103.107V6.34326Z" fill="white"/>
<path d="M112.225 6.34326H119.844V7.96018H114.098V11.4428H119.594V12.9975H114.098V16.7288H119.844V18.3457H112.225V6.34326Z" fill="white"/>
<path d="M123.528 18.1594C122.842 17.9106 122.342 17.4753 121.905 16.9778C121.53 16.4803 121.28 15.8584 121.218 15.1743V15.05H123.029V15.1743C123.091 15.5475 123.216 15.8584 123.466 16.1072C123.716 16.3559 124.028 16.6047 124.465 16.7291C124.902 16.8534 125.34 16.9156 125.902 16.9156C126.464 16.9156 126.901 16.8534 127.276 16.6669C127.65 16.5425 127.962 16.2937 128.15 16.045C128.337 15.7962 128.462 15.4231 128.462 15.05C128.462 14.5524 128.275 14.1793 127.962 13.8684C127.588 13.5574 127.026 13.3708 126.214 13.1843L124.902 12.9355C123.716 12.6868 122.842 12.3136 122.279 11.7539C121.717 11.1942 121.405 10.5101 121.405 9.57731C121.405 8.89323 121.592 8.27134 121.967 7.77383C122.342 7.27632 122.842 6.841 123.528 6.53005C124.215 6.2191 124.965 6.09473 125.777 6.09473C126.589 6.09473 127.338 6.2191 127.962 6.53005C128.587 6.841 129.087 7.21413 129.461 7.71164C129.836 8.20915 130.023 8.83104 130.086 9.51512V9.6395H128.275V9.51512C128.212 9.14199 128.087 8.83104 127.838 8.58229C127.588 8.33353 127.338 8.08478 126.963 7.9604C126.589 7.83602 126.151 7.77383 125.714 7.77383C125.215 7.77383 124.777 7.83602 124.403 8.02259C124.028 8.14697 123.778 8.39572 123.528 8.64448C123.341 8.89323 123.216 9.20418 123.216 9.57731C123.216 10.0126 123.404 10.3858 123.778 10.6967C124.153 11.0077 124.715 11.1942 125.464 11.3808L126.776 11.6917C127.588 11.8783 128.275 12.0649 128.774 12.3758C129.274 12.6868 129.711 13.0599 129.961 13.4952C130.211 13.9305 130.336 14.4902 130.336 15.1121C130.336 15.8584 130.148 16.4803 129.774 17.04C129.399 17.5997 128.899 17.9728 128.212 18.2838C127.525 18.5947 126.713 18.7191 125.777 18.7191C124.965 18.5325 124.215 18.4082 123.528 18.1594Z" fill="white"/>
<path d="M68.2592 24.1294H69.7581V26.1194H69.2585L65.8236 36.1319H63.8252L68.2592 24.1294ZM66.5106 31.4055H71.9439L72.5059 32.8981H65.9485L66.5106 31.4055ZM69.2585 26.1194V24.1294H70.2577L74.6293 36.1319H72.6308L69.2585 26.1194Z" fill="white"/>
<path d="M77.6269 35.9454C76.9399 35.6966 76.4403 35.2613 76.0031 34.7638C75.6284 34.2663 75.3786 33.6444 75.3162 32.9603V32.8359H77.1272V32.9603C77.1897 33.3334 77.3146 33.6444 77.5644 33.8931C77.8142 34.1419 78.1265 34.3906 78.5636 34.515C79.0008 34.6394 79.4379 34.7016 80 34.7016C80.5621 34.7016 80.9992 34.6394 81.3739 34.4528C81.7486 34.3284 82.0609 34.0797 82.2482 33.8309C82.4356 33.5822 82.5605 33.209 82.5605 32.8359C82.5605 32.3384 82.3731 31.9653 82.0609 31.7165C81.6862 31.4056 81.1241 31.219 80.3123 31.0324L79.0008 30.7837C77.8142 30.5349 76.9399 30.1618 76.3778 29.6021C75.8158 29.0424 75.5035 28.3583 75.5035 27.4255C75.5035 26.7414 75.6909 26.1195 76.0656 25.622C76.4403 25.1245 76.9399 24.6891 77.6269 24.3782C78.3138 24.0672 79.0632 23.9429 79.8751 23.9429C80.687 23.9429 81.4364 24.0672 82.0609 24.3782C82.6854 24.6891 83.185 25.0623 83.5597 25.5598C83.9344 26.0573 84.1218 26.6792 84.1842 27.3633V27.4876H82.3731V27.3633C82.3107 26.9901 82.1858 26.6792 81.936 26.4304C81.6862 26.1817 81.4364 25.9329 81.0617 25.8085C80.687 25.6842 80.2498 25.622 79.8127 25.622C79.313 25.622 78.8759 25.6842 78.5012 25.8707C78.1265 25.9951 77.8767 26.2439 77.6269 26.4926C77.4395 26.7414 77.3146 27.0523 77.3146 27.4255C77.3146 27.8608 77.502 28.2339 77.8767 28.5449C78.2514 28.8558 78.8134 29.0424 79.5628 29.2289L80.8743 29.5399C81.6862 29.7265 82.3731 29.9752 82.8728 30.224C83.3724 30.5349 83.8095 30.908 84.0593 31.3434C84.3091 31.7787 84.434 32.3384 84.434 32.9603C84.434 33.7066 84.2467 34.3284 83.872 34.8881C83.4973 35.4478 82.9977 35.821 82.3107 36.1319C81.6237 36.4429 80.8119 36.5672 79.8751 36.5672C79.0632 36.3185 78.3138 36.1941 77.6269 35.9454Z" fill="white"/>
<path d="M87.9938 35.9454C87.3068 35.6966 86.8072 35.2613 86.3701 34.7638C85.9329 34.2663 85.7456 33.6444 85.6831 32.9603V32.8359H87.4942V32.9603C87.5566 33.3334 87.6815 33.6444 87.9314 33.8931C88.1812 34.1419 88.4934 34.3906 88.9306 34.515C89.3677 34.6394 89.8049 34.7016 90.3669 34.7016C90.929 34.7016 91.3662 34.6394 91.7409 34.4528C92.1156 34.3284 92.4278 34.0797 92.6152 33.8309C92.8025 33.5822 92.9274 33.209 92.9274 32.8359C92.9274 32.3384 92.7401 31.9653 92.4278 31.7165C92.0531 31.4056 91.4911 31.219 90.6792 31.0324L89.3677 30.7837C88.1812 30.5349 87.3068 30.1618 86.7448 29.6021C86.1827 29.0424 85.8705 28.3583 85.8705 27.4255C85.8705 26.7414 86.0578 26.1195 86.4325 25.622C86.8072 25.1245 87.3068 24.6891 87.9938 24.3782C88.6808 24.0672 89.4302 23.9429 90.242 23.9429C91.0539 23.9429 91.8033 24.0672 92.4278 24.3782C93.0524 24.6891 93.552 25.0623 93.9267 25.5598C94.3014 26.0573 94.4887 26.6792 94.5512 27.3633V27.4876H92.7401V27.3633C92.6776 26.9901 92.5527 26.6792 92.3029 26.4304C92.0531 26.1817 91.8033 25.9329 91.4286 25.8085C91.0539 25.6842 90.6167 25.622 90.1796 25.622C89.68 25.622 89.2428 25.6842 88.8681 25.8707C88.4934 25.9951 88.2436 26.2439 87.9938 26.4926C87.8064 26.7414 87.6815 27.0523 87.6815 27.4255C87.6815 27.8608 87.8689 28.2339 88.2436 28.5449C88.6183 28.8558 89.1804 29.0424 89.9298 29.2289L91.2413 29.5399C92.0531 29.7265 92.7401 29.9752 93.2397 30.224C93.7393 30.5349 94.1765 30.908 94.4263 31.3434C94.6761 31.7787 94.801 32.3384 94.801 32.9603C94.801 33.7066 94.6136 34.3284 94.2389 34.8881C93.8642 35.4478 93.3646 35.821 92.6776 36.1319C91.9907 36.4429 91.1788 36.5672 90.242 36.5672C89.4302 36.3185 88.6808 36.1941 87.9938 35.9454Z" fill="white"/>
<path d="M98.8603 35.5725C97.9859 35.075 97.3614 34.3288 96.9243 33.4581C96.4871 32.5253 96.2373 31.4059 96.2373 30.1621C96.2373 28.9183 96.4871 27.7989 96.9243 26.8661C97.3614 25.9332 98.0484 25.2492 98.8603 24.7516C99.7346 24.2541 100.734 24.0054 101.858 24.0054C102.982 24.0054 103.981 24.2541 104.856 24.7516C105.73 25.2492 106.354 25.9954 106.792 26.8661C107.229 27.7989 107.479 28.8561 107.479 30.1621C107.479 31.4059 107.229 32.5253 106.792 33.4581C106.354 34.3909 105.667 35.075 104.856 35.5725C104.044 36.07 102.982 36.3188 101.858 36.3188C100.671 36.3188 99.6721 36.07 98.8603 35.5725ZM103.856 34.1422C104.418 33.7691 104.856 33.2715 105.168 32.5875C105.48 31.9034 105.605 31.0949 105.605 30.1621C105.605 29.2293 105.48 28.4208 105.168 27.7367C104.856 27.0526 104.418 26.5551 103.856 26.182C103.294 25.8089 102.67 25.6223 101.858 25.6223C101.108 25.6223 100.422 25.8089 99.8595 26.182C99.2974 26.5551 98.8603 27.0526 98.548 27.7367C98.2357 28.4208 98.1108 29.2293 98.1108 30.1621C98.1108 31.0949 98.2357 31.9034 98.548 32.5875C98.8603 33.2715 99.2974 33.7691 99.8595 34.1422C100.422 34.5153 101.108 34.7019 101.858 34.7019C102.607 34.7019 103.294 34.5153 103.856 34.1422Z" fill="white"/>
<path d="M111.475 35.5722C110.664 35.0747 109.977 34.3284 109.539 33.3956C109.102 32.4628 108.853 31.3434 108.853 30.0996C108.853 28.8558 109.102 27.7364 109.539 26.8036C109.977 25.8707 110.664 25.1867 111.475 24.6891C112.287 24.1916 113.287 23.9429 114.411 23.9429C115.285 23.9429 116.097 24.1294 116.784 24.4404C117.471 24.7513 118.095 25.2488 118.532 25.8707C118.97 26.4926 119.282 27.1767 119.407 27.9852V28.0473H117.533L117.471 27.8608C117.346 27.3633 117.159 26.9901 116.846 26.617C116.534 26.3061 116.222 25.9951 115.785 25.8707C115.347 25.6842 114.91 25.622 114.348 25.622C113.599 25.622 112.974 25.8085 112.412 26.1817C111.85 26.5548 111.413 27.0523 111.163 27.7364C110.851 28.4205 110.726 29.2289 110.726 30.1618C110.726 31.0946 110.851 31.9031 111.163 32.5871C111.475 33.2712 111.913 33.7687 112.412 34.1419C112.974 34.515 113.599 34.7016 114.348 34.7016C114.91 34.7016 115.347 34.6394 115.785 34.4528C116.222 34.2663 116.534 34.0175 116.846 33.6444C117.159 33.2712 117.346 32.8981 117.533 32.3384V32.2762H119.407V32.3384C119.282 33.1469 118.97 33.8309 118.532 34.4528C118.095 35.0747 117.471 35.51 116.784 35.8832C116.097 36.1941 115.285 36.3807 114.411 36.3807C113.287 36.3185 112.287 36.0697 111.475 35.5722Z" fill="white"/>
<path d="M121.156 24.1294H123.029V36.1319H121.156V24.1294Z" fill="white"/>
<path d="M128.712 24.1294H130.211V26.1194H129.711L126.277 36.1319H124.278L128.712 24.1294ZM127.026 31.4055H132.459L133.021 32.8981H126.464L127.026 31.4055ZM129.774 26.1194V24.1294H130.773L135.145 36.1319H133.146L129.774 26.1194Z" fill="white"/>
<path d="M137.767 25.7463H134.083V24.1294H143.326V25.7463H139.641V36.1319H137.767V25.7463Z" fill="white"/>
<path d="M144.887 24.1294H146.76V36.1319H144.887V24.1294Z" fill="white"/>
<path d="M151.132 35.5725C150.258 35.075 149.633 34.3288 149.196 33.4581C148.759 32.5253 148.509 31.4059 148.509 30.1621C148.509 28.9183 148.759 27.7989 149.196 26.8661C149.633 25.9332 150.32 25.2492 151.132 24.7516C152.006 24.2541 153.006 24.0054 154.13 24.0054C155.254 24.0054 156.253 24.2541 157.127 24.7516C158.002 25.2492 158.626 25.9954 159.063 26.8661C159.5 27.7989 159.75 28.8561 159.75 30.1621C159.75 31.4059 159.5 32.5253 159.063 33.4581C158.626 34.3909 157.939 35.075 157.127 35.5725C156.315 36.07 155.254 36.3188 154.13 36.3188C153.006 36.3188 152.006 36.07 151.132 35.5725ZM156.128 34.1422C156.69 33.7691 157.127 33.2715 157.44 32.5875C157.752 31.9034 157.877 31.0949 157.877 30.1621C157.877 29.2293 157.752 28.4208 157.44 27.7367C157.127 27.0526 156.69 26.5551 156.128 26.182C155.566 25.8089 154.942 25.6223 154.13 25.6223C153.38 25.6223 152.693 25.8089 152.131 26.182C151.569 26.5551 151.132 27.0526 150.82 27.7367C150.507 28.4208 150.383 29.2293 150.383 30.1621C150.383 31.0949 150.507 31.9034 150.82 32.5875C151.132 33.2715 151.569 33.7691 152.131 34.1422C152.693 34.5153 153.38 34.7019 154.13 34.7019C154.942 34.7019 155.628 34.5153 156.128 34.1422Z" fill="white"/>
<path d="M161.561 24.1294H163.31L170.742 34.7015L168.743 32.9602H169.555V24.1294H171.429V36.1319H169.68L162.248 25.4976L164.247 27.2388H163.435V36.1319H161.561V24.1294Z" fill="white"/>
<path d="M36.4091 20.5848C38.858 20.5848 40.8432 18.6079 40.8432 16.1693C40.8432 13.7308 38.858 11.7539 36.4091 11.7539C33.9603 11.7539 31.9751 13.7308 31.9751 16.1693C31.9751 18.6079 33.9603 20.5848 36.4091 20.5848Z" fill="url(#paint0_linear_21_2356)"/>
<path d="M27.6659 28.7313C29.9768 28.7313 31.8502 26.8658 31.8502 24.5646C31.8502 22.2634 29.9768 20.3979 27.6659 20.3979C25.355 20.3979 23.4817 22.2634 23.4817 24.5646C23.4817 26.8658 25.355 28.7313 27.6659 28.7313Z" fill="url(#paint1_linear_21_2356)"/>
<path d="M46.4636 11.7535C48.7055 11.7535 50.523 9.94373 50.523 7.71123C50.523 5.47874 48.7055 3.66895 46.4636 3.66895C44.2217 3.66895 42.4043 5.47874 42.4043 7.71123C42.4043 9.94373 44.2217 11.7535 46.4636 11.7535Z" fill="url(#paint2_linear_21_2356)"/>
<path d="M17.5488 36.8781C19.1354 36.8781 20.4215 35.5974 20.4215 34.0174C20.4215 32.4375 19.1354 31.1567 17.5488 31.1567C15.9622 31.1567 14.676 32.4375 14.676 34.0174C14.676 35.5974 15.9622 36.8781 17.5488 36.8781Z" fill="url(#paint3_linear_21_2356)"/>
<path d="M38.7822 36.0075C40.3688 36.0075 41.6549 34.7267 41.6549 33.1468C41.6549 31.5669 40.3688 30.2861 38.7822 30.2861C37.1956 30.2861 35.9094 31.5669 35.9094 33.1468C35.9094 34.7267 37.1956 36.0075 38.7822 36.0075Z" fill="url(#paint4_linear_21_2356)"/>
<path d="M21.8579 32.0897C23.41 32.0897 24.6682 30.8368 24.6682 29.2912C24.6682 27.7456 23.41 26.4927 21.8579 26.4927C20.3058 26.4927 19.0476 27.7456 19.0476 29.2912C19.0476 30.8368 20.3058 32.0897 21.8579 32.0897Z" fill="url(#paint5_linear_21_2356)"/>
<path d="M32.2248 31.8409C33.4665 31.8409 34.4731 30.8385 34.4731 29.6021C34.4731 28.3656 33.4665 27.3633 32.2248 27.3633C30.9831 27.3633 29.9766 28.3656 29.9766 29.6021C29.9766 30.8385 30.9831 31.8409 32.2248 31.8409Z" fill="url(#paint6_linear_21_2356)"/>
<path d="M29.4144 20.0249C30.5526 20.0249 31.4753 19.1061 31.4753 17.9726C31.4753 16.8392 30.5526 15.9204 29.4144 15.9204C28.2762 15.9204 27.3535 16.8392 27.3535 17.9726C27.3535 19.1061 28.2762 20.0249 29.4144 20.0249Z" fill="url(#paint7_linear_21_2356)"/>
<path d="M10.6167 40.4227C11.6514 40.4227 12.4902 39.5875 12.4902 38.5571C12.4902 37.5267 11.6514 36.6914 10.6167 36.6914C9.58197 36.6914 8.74316 37.5267 8.74316 38.5571C8.74316 39.5875 9.58197 40.4227 10.6167 40.4227Z" fill="url(#paint8_linear_21_2356)"/>
<path d="M29.6018 5.47242C30.671 5.47242 31.5377 4.60929 31.5377 3.54456C31.5377 2.47983 30.671 1.6167 29.6018 1.6167C28.5325 1.6167 27.6658 2.47983 27.6658 3.54456C27.6658 4.60929 28.5325 5.47242 29.6018 5.47242Z" fill="url(#paint9_linear_21_2356)"/>
<path d="M32.7868 8.51978C33.856 8.51978 34.7228 7.65665 34.7228 6.59192C34.7228 5.5272 33.856 4.66406 32.7868 4.66406C31.7176 4.66406 30.8508 5.5272 30.8508 6.59192C30.8508 7.65665 31.7176 8.51978 32.7868 8.51978Z" fill="url(#paint10_linear_21_2356)"/>
<path d="M41.8422 13.8681C42.739 13.8681 43.466 13.1442 43.466 12.2512C43.466 11.3582 42.739 10.6343 41.8422 10.6343C40.9455 10.6343 40.2185 11.3582 40.2185 12.2512C40.2185 13.1442 40.9455 13.8681 41.8422 13.8681Z" fill="url(#paint11_linear_21_2356)"/>
<path d="M32.8494 37.9973C34.0565 37.9973 35.0352 37.0228 35.0352 35.8207C35.0352 34.6185 34.0565 33.644 32.8494 33.644C31.6422 33.644 30.6636 34.6185 30.6636 35.8207C30.6636 37.0228 31.6422 37.9973 32.8494 37.9973Z" fill="url(#paint12_linear_21_2356)"/>
<path d="M14.3638 38.7439C15.0536 38.7439 15.6128 38.1871 15.6128 37.5001C15.6128 36.8132 15.0536 36.2563 14.3638 36.2563C13.674 36.2563 13.1147 36.8132 13.1147 37.5001C13.1147 38.1871 13.674 38.7439 14.3638 38.7439Z" fill="url(#paint13_linear_21_2356)"/>
<path d="M7.11939 43.1593C7.98166 43.1593 8.68067 42.4632 8.68067 41.6045C8.68067 40.7459 7.98166 40.0498 7.11939 40.0498C6.25711 40.0498 5.55811 40.7459 5.55811 41.6045C5.55811 42.4632 6.25711 43.1593 7.11939 43.1593Z" fill="url(#paint14_linear_21_2356)"/>
<path d="M28.103 39.4902C28.9997 39.4902 29.7267 38.7663 29.7267 37.8733C29.7267 36.9803 28.9997 36.2563 28.103 36.2563C27.2062 36.2563 26.4792 36.9803 26.4792 37.8733C26.4792 38.7663 27.2062 39.4902 28.103 39.4902Z" fill="url(#paint15_linear_21_2356)"/>
<path d="M25.8548 3.48263C26.6826 3.48263 27.3536 2.8144 27.3536 1.9901C27.3536 1.16579 26.6826 0.497559 25.8548 0.497559C25.027 0.497559 24.356 1.16579 24.356 1.9901C24.356 2.8144 25.027 3.48263 25.8548 3.48263Z" fill="url(#paint16_linear_21_2356)"/>
<path d="M32.9119 12.189C33.7741 12.189 34.4731 11.493 34.4731 10.6343C34.4731 9.77566 33.7741 9.07959 32.9119 9.07959C32.0496 9.07959 31.3506 9.77566 31.3506 10.6343C31.3506 11.493 32.0496 12.189 32.9119 12.189Z" fill="url(#paint17_linear_21_2356)"/>
<path d="M37.2209 11.2561C38.2901 11.2561 39.1569 10.393 39.1569 9.32825C39.1569 8.26352 38.2901 7.40039 37.2209 7.40039C36.1517 7.40039 35.2849 8.26352 35.2849 9.32825C35.2849 10.393 36.1517 11.2561 37.2209 11.2561Z" fill="url(#paint18_linear_21_2356)"/>
<path d="M43.6534 24.8132C44.4812 24.8132 45.1522 24.145 45.1522 23.3207C45.1522 22.4964 44.4812 21.8281 43.6534 21.8281C42.8256 21.8281 42.1545 22.4964 42.1545 23.3207C42.1545 24.145 42.8256 24.8132 43.6534 24.8132Z" fill="url(#paint19_linear_21_2356)"/>
<path d="M51.335 21.7038C52.1628 21.7038 52.8338 21.0356 52.8338 20.2113C52.8338 19.387 52.1628 18.7188 51.335 18.7188C50.5072 18.7188 49.8362 19.387 49.8362 20.2113C49.8362 21.0356 50.5072 21.7038 51.335 21.7038Z" fill="url(#paint20_linear_21_2356)"/>
<path d="M49.9609 23.5698C50.4783 23.5698 50.8977 23.1521 50.8977 22.6369C50.8977 22.1217 50.4783 21.7041 49.9609 21.7041C49.4436 21.7041 49.0242 22.1217 49.0242 22.6369C49.0242 23.1521 49.4436 23.5698 49.9609 23.5698Z" fill="url(#paint21_linear_21_2356)"/>
<path d="M42.2171 21.953C43.3898 21.953 44.3404 21.0063 44.3404 19.8385C44.3404 18.6708 43.3898 17.7241 42.2171 17.7241C41.0444 17.7241 40.0938 18.6708 40.0938 19.8385C40.0938 21.0063 41.0444 21.953 42.2171 21.953Z" fill="url(#paint22_linear_21_2356)"/>
<path d="M47.4629 27.0521C48.6356 27.0521 49.5863 26.1054 49.5863 24.9377C49.5863 23.7699 48.6356 22.8232 47.4629 22.8232C46.2903 22.8232 45.3396 23.7699 45.3396 24.9377C45.3396 26.1054 46.2903 27.0521 47.4629 27.0521Z" fill="url(#paint23_linear_21_2356)"/>
<path d="M22.8571 2.79864C23.409 2.79864 23.8563 2.35316 23.8563 1.80362C23.8563 1.25408 23.409 0.808594 22.8571 0.808594C22.3053 0.808594 21.8579 1.25408 21.8579 1.80362C21.8579 2.35316 22.3053 2.79864 22.8571 2.79864Z" fill="url(#paint24_linear_21_2356)"/>
<path d="M16.5495 2.79864C17.1014 2.79864 17.5487 2.35316 17.5487 1.80362C17.5487 1.25408 17.1014 0.808594 16.5495 0.808594C15.9977 0.808594 15.5503 1.25408 15.5503 1.80362C15.5503 2.35316 15.9977 2.79864 16.5495 2.79864Z" fill="url(#paint25_linear_21_2356)"/>
<path d="M14.6135 2.42542C14.9584 2.42542 15.238 2.14699 15.238 1.80353C15.238 1.46007 14.9584 1.18164 14.6135 1.18164C14.2686 1.18164 13.989 1.46007 13.989 1.80353C13.989 2.14699 14.2686 2.42542 14.6135 2.42542Z" fill="url(#paint26_linear_21_2356)"/>
<path d="M1.81099 50.0001C2.5353 50.0001 3.12246 49.4154 3.12246 48.6942C3.12246 47.9729 2.5353 47.3882 1.81099 47.3882C1.08668 47.3882 0.499512 47.9729 0.499512 48.6942C0.499512 49.4154 1.08668 50.0001 1.81099 50.0001Z" fill="url(#paint27_linear_21_2356)"/>
<path d="M30.2888 15.5474C31.1511 15.5474 31.8501 14.8514 31.8501 13.9927C31.8501 13.1341 31.1511 12.438 30.2888 12.438C29.4265 12.438 28.7275 13.1341 28.7275 13.9927C28.7275 14.8514 29.4265 15.5474 30.2888 15.5474Z" fill="url(#paint28_linear_21_2356)"/>
<path d="M19.5471 3.10945C20.4094 3.10945 21.1084 2.41338 21.1084 1.55473C21.1084 0.696075 20.4094 0 19.5471 0C18.6848 0 17.9858 0.696075 17.9858 1.55473C17.9858 2.41338 18.6848 3.10945 19.5471 3.10945Z" fill="url(#paint29_linear_21_2356)"/>
<path d="M4.30908 44.5276C4.9989 44.5276 5.55811 43.9707 5.55811 43.2838C5.55811 42.5969 4.9989 42.04 4.30908 42.04C3.61927 42.04 3.06006 42.5969 3.06006 43.2838C3.06006 43.9707 3.61927 44.5276 4.30908 44.5276Z" fill="url(#paint30_linear_21_2356)"/>
<path d="M36.409 30.535C37.2023 30.535 37.8454 29.8946 37.8454 29.1047C37.8454 28.3147 37.2023 27.6743 36.409 27.6743C35.6157 27.6743 34.9727 28.3147 34.9727 29.1047C34.9727 29.8946 35.6157 30.535 36.409 30.535Z" fill="url(#paint31_linear_21_2356)"/>
<path d="M25.043 40.6718C25.6983 40.6718 26.2296 40.1428 26.2296 39.4902C26.2296 38.8376 25.6983 38.3086 25.043 38.3086C24.3877 38.3086 23.8564 38.8376 23.8564 39.4902C23.8564 40.1428 24.3877 40.6718 25.043 40.6718Z" fill="url(#paint32_linear_21_2356)"/>
<path d="M22.8571 44.4653C23.7539 44.4653 24.4809 43.7414 24.4809 42.8484C24.4809 41.9554 23.7539 41.2314 22.8571 41.2314C21.9604 41.2314 21.2334 41.9554 21.2334 42.8484C21.2334 43.7414 21.9604 44.4653 22.8571 44.4653Z" fill="url(#paint33_linear_21_2356)"/>
<path d="M1.31148 47.1393C2.03578 47.1393 2.62295 46.5546 2.62295 45.8333C2.62295 45.112 2.03578 44.5273 1.31148 44.5273C0.587167 44.5273 0 45.112 0 45.8333C0 46.5546 0.587167 47.1393 1.31148 47.1393Z" fill="url(#paint34_linear_21_2356)"/>
<path d="M32.9117 23.072C33.7395 23.072 34.4105 22.4038 34.4105 21.5795C34.4105 20.7551 33.7395 20.0869 32.9117 20.0869C32.0839 20.0869 31.4128 20.7551 31.4128 21.5795C31.4128 22.4038 32.0839 23.072 32.9117 23.072Z" fill="url(#paint35_linear_21_2356)"/>
<path d="M53.0211 19.0296C53.435 19.0296 53.7706 18.6955 53.7706 18.2834C53.7706 17.8712 53.435 17.5371 53.0211 17.5371C52.6073 17.5371 52.2717 17.8712 52.2717 18.2834C52.2717 18.6955 52.6073 19.0296 53.0211 19.0296Z" fill="url(#paint36_linear_21_2356)"/>
<path d="M54.2701 14.9252C54.546 14.9252 54.7697 14.7025 54.7697 14.4277C54.7697 14.1529 54.546 13.9302 54.2701 13.9302C53.9942 13.9302 53.7705 14.1529 53.7705 14.4277C53.7705 14.7025 53.9942 14.9252 54.2701 14.9252Z" fill="url(#paint37_linear_21_2356)"/>
<path d="M53.2083 17.2886C53.8292 17.2886 54.3325 16.7874 54.3325 16.1692C54.3325 15.551 53.8292 15.0498 53.2083 15.0498C52.5875 15.0498 52.0842 15.551 52.0842 16.1692C52.0842 16.7874 52.5875 17.2886 53.2083 17.2886Z" fill="url(#paint38_linear_21_2356)"/>
<path d="M29.3521 42.8481C30.164 42.8481 30.8509 43.47 30.8509 44.3407C30.8509 45.2113 30.164 45.8332 29.3521 45.8332C28.5402 45.8332 27.8533 45.2113 27.8533 44.3407C27.8533 43.47 28.5402 42.8481 29.3521 42.8481ZM29.3521 43.1591C28.7276 43.1591 28.228 43.6566 28.228 44.3407C28.228 44.9626 28.7276 45.5223 29.3521 45.5223C29.9766 45.5223 30.4762 45.0248 30.4762 44.3407C30.4762 43.7188 30.0391 43.1591 29.3521 43.1591ZM29.1023 45.0869H28.79V43.5944C28.9149 43.5944 29.1023 43.5322 29.3521 43.5322C29.6019 43.5322 29.7268 43.5944 29.8517 43.6566C29.9142 43.7188 29.9766 43.8432 29.9766 43.9675C29.9766 44.1541 29.8517 44.2785 29.6644 44.3407C29.7893 44.4029 29.8517 44.5272 29.9142 44.7138C29.9766 44.9626 29.9766 45.0248 30.0391 45.0869H29.6644C29.6019 45.0248 29.6019 44.9004 29.5395 44.7138C29.5395 44.5894 29.4146 44.4651 29.2272 44.4651H29.0398V45.0869H29.1023ZM29.1647 44.2785H29.3521C29.5395 44.2785 29.6644 44.2163 29.6644 44.0919C29.6644 43.9675 29.5395 43.8432 29.3521 43.8432C29.2897 43.8432 29.2272 43.8432 29.1647 43.8432V44.2785Z" fill="url(#paint39_linear_21_2356)"/>
</g>
<defs>
<linearGradient id="paint0_linear_21_2356" x1="58.8829" y1="-10.4967" x2="3.03569" y2="56.3401" gradientUnits="userSpaceOnUse">
<stop stop-color="#00C8DC"/>
<stop offset="1" stop-color="#0ABE50"/>
</linearGradient>
<linearGradient id="paint1_linear_21_2356" x1="57.8904" y1="-11.306" x2="2.0431" y2="55.5307" gradientUnits="userSpaceOnUse">
<stop stop-color="#00C8DC"/>
<stop offset="1" stop-color="#0ABE50"/>
</linearGradient>
<linearGradient id="paint2_linear_21_2356" x1="60.4945" y1="-8.92142" x2="4.64721" y2="57.9154" gradientUnits="userSpaceOnUse">
<stop stop-color="#00C8DC"/>
<stop offset="1" stop-color="#0ABE50"/>
</linearGradient>
<linearGradient id="paint3_linear_21_2356" x1="56.6434" y1="-12.3811" x2="0.796102" y2="54.4556" gradientUnits="userSpaceOnUse">
<stop stop-color="#00C8DC"/>
<stop offset="1" stop-color="#0ABE50"/>
</linearGradient>
<linearGradient id="paint4_linear_21_2356" x1="66.6804" y1="0.0569204" x2="10.8331" y2="66.8937" gradientUnits="userSpaceOnUse">
<stop stop-color="#00C8DC"/>
<stop offset="1" stop-color="#0ABE50"/>
</linearGradient>
<linearGradient id="paint5_linear_21_2356" x1="56.9238" y1="-12.269" x2="1.07651" y2="54.5678" gradientUnits="userSpaceOnUse">
<stop stop-color="#00C8DC"/>
<stop offset="1" stop-color="#0ABE50"/>
</linearGradient>
<linearGradient id="paint6_linear_21_2356" x1="62.0852" y1="-5.83815" x2="6.23796" y2="60.9986" gradientUnits="userSpaceOnUse">
<stop stop-color="#00C8DC"/>
<stop offset="1" stop-color="#0ABE50"/>
</linearGradient>
<linearGradient id="paint7_linear_21_2356" x1="56.1853" y1="-13.7598" x2="0.337948" y2="53.077" gradientUnits="userSpaceOnUse">
<stop stop-color="#00C8DC"/>
<stop offset="1" stop-color="#0ABE50"/>
</linearGradient>
<linearGradient id="paint8_linear_21_2356" x1="55.0248" y1="-14.1623" x2="-0.822511" y2="52.6745" gradientUnits="userSpaceOnUse">
<stop stop-color="#00C8DC"/>
<stop offset="1" stop-color="#0ABE50"/>
</linearGradient>
<linearGradient id="paint9_linear_21_2356" x1="50.624" y1="-21.4059" x2="-5.22324" y2="45.4309" gradientUnits="userSpaceOnUse">
<stop stop-color="#00C8DC"/>
<stop offset="1" stop-color="#0ABE50"/>
</linearGradient>
<linearGradient id="paint10_linear_21_2356" x1="53.3644" y1="-17.845" x2="-2.48292" y2="48.9918" gradientUnits="userSpaceOnUse">
<stop stop-color="#00C8DC"/>
<stop offset="1" stop-color="#0ABE50"/>
</linearGradient>
<linearGradient id="paint11_linear_21_2356" x1="60.0049" y1="-9.29918" x2="4.15759" y2="57.5376" gradientUnits="userSpaceOnUse">
<stop stop-color="#00C8DC"/>
<stop offset="1" stop-color="#0ABE50"/>
</linearGradient>
<linearGradient id="paint12_linear_21_2356" x1="64.7969" y1="-2.15235" x2="8.94964" y2="64.6844" gradientUnits="userSpaceOnUse">
<stop stop-color="#00C8DC"/>
<stop offset="1" stop-color="#0ABE50"/>
</linearGradient>
<linearGradient id="paint13_linear_21_2356" x1="56.4553" y1="-12.4386" x2="0.607987" y2="54.3982" gradientUnits="userSpaceOnUse">
<stop stop-color="#00C8DC"/>
<stop offset="1" stop-color="#0ABE50"/>
</linearGradient>
<linearGradient id="paint14_linear_21_2356" x1="54.5037" y1="-14.6569" x2="-1.34352" y2="52.1799" gradientUnits="userSpaceOnUse">
<stop stop-color="#00C8DC"/>
<stop offset="1" stop-color="#0ABE50"/>
</linearGradient>
<linearGradient id="paint15_linear_21_2356" x1="63.3015" y1="-3.90615" x2="7.45418" y2="62.9306" gradientUnits="userSpaceOnUse">
<stop stop-color="#00C8DC"/>
<stop offset="1" stop-color="#0ABE50"/>
</linearGradient>
<linearGradient id="paint16_linear_21_2356" x1="48.1926" y1="-24.5057" x2="-7.65469" y2="42.3311" gradientUnits="userSpaceOnUse">
<stop stop-color="#00C8DC"/>
<stop offset="1" stop-color="#0ABE50"/>
</linearGradient>
<linearGradient id="paint17_linear_21_2356" x1="55.0061" y1="-15.5971" x2="-0.841222" y2="51.2396" gradientUnits="userSpaceOnUse">
<stop stop-color="#00C8DC"/>
<stop offset="1" stop-color="#0ABE50"/>
</linearGradient>
<linearGradient id="paint18_linear_21_2356" x1="56.6034" y1="-13.6776" x2="0.756114" y2="53.1592" gradientUnits="userSpaceOnUse">
<stop stop-color="#00C8DC"/>
<stop offset="1" stop-color="#0ABE50"/>
</linearGradient>
<linearGradient id="paint19_linear_21_2356" x1="65.2304" y1="-2.24353" x2="9.3831" y2="64.5932" gradientUnits="userSpaceOnUse">
<stop stop-color="#00C8DC"/>
<stop offset="1" stop-color="#0ABE50"/>
</linearGradient>
<linearGradient id="paint20_linear_21_2356" x1="67.7523" y1="0.735911" x2="11.9049" y2="67.5726" gradientUnits="userSpaceOnUse">
<stop stop-color="#00C8DC"/>
<stop offset="1" stop-color="#0ABE50"/>
</linearGradient>
<linearGradient id="paint21_linear_21_2356" x1="68.0161" y1="1.18625" x2="12.1688" y2="68.023" gradientUnits="userSpaceOnUse">
<stop stop-color="#00C8DC"/>
<stop offset="1" stop-color="#0ABE50"/>
</linearGradient>
<linearGradient id="paint22_linear_21_2356" x1="63.1283" y1="-5.03489" x2="7.28101" y2="61.8019" gradientUnits="userSpaceOnUse">
<stop stop-color="#00C8DC"/>
<stop offset="1" stop-color="#0ABE50"/>
</linearGradient>
<linearGradient id="paint23_linear_21_2356" x1="67.6932" y1="0.898931" x2="11.846" y2="67.7357" gradientUnits="userSpaceOnUse">
<stop stop-color="#00C8DC"/>
<stop offset="1" stop-color="#0ABE50"/>
</linearGradient>
<linearGradient id="paint24_linear_21_2356" x1="46.6598" y1="-26.4226" x2="-9.18748" y2="40.4142" gradientUnits="userSpaceOnUse">
<stop stop-color="#00C8DC"/>
<stop offset="1" stop-color="#0ABE50"/>
</linearGradient>
<linearGradient id="paint25_linear_21_2356" x1="43.559" y1="-30.278" x2="-12.2883" y2="36.5587" gradientUnits="userSpaceOnUse">
<stop stop-color="#00C8DC"/>
<stop offset="1" stop-color="#0ABE50"/>
</linearGradient>
<linearGradient id="paint26_linear_21_2356" x1="42.6171" y1="-31.4492" x2="-13.2302" y2="35.3876" gradientUnits="userSpaceOnUse">
<stop stop-color="#00C8DC"/>
<stop offset="1" stop-color="#0ABE50"/>
</linearGradient>
<linearGradient id="paint27_linear_21_2356" x1="54.7192" y1="-14.0285" x2="-1.12813" y2="52.8083" gradientUnits="userSpaceOnUse">
<stop stop-color="#00C8DC"/>
<stop offset="1" stop-color="#0ABE50"/>
</linearGradient>
<linearGradient id="paint28_linear_21_2356" x1="55.0362" y1="-15.3899" x2="-0.811152" y2="51.4469" gradientUnits="userSpaceOnUse">
<stop stop-color="#00C8DC"/>
<stop offset="1" stop-color="#0ABE50"/>
</linearGradient>
<linearGradient id="paint29_linear_21_2356" x1="44.9518" y1="-28.5569" x2="-10.8954" y2="38.2799" gradientUnits="userSpaceOnUse">
<stop stop-color="#00C8DC"/>
<stop offset="1" stop-color="#0ABE50"/>
</linearGradient>
<linearGradient id="paint30_linear_21_2356" x1="53.7859" y1="-15.4655" x2="-2.06142" y2="51.3713" gradientUnits="userSpaceOnUse">
<stop stop-color="#00C8DC"/>
<stop offset="1" stop-color="#0ABE50"/>
</linearGradient>
<linearGradient id="paint31_linear_21_2356" x1="63.933" y1="-3.56373" x2="8.08571" y2="63.273" gradientUnits="userSpaceOnUse">
<stop stop-color="#00C8DC"/>
<stop offset="1" stop-color="#0ABE50"/>
</linearGradient>
<linearGradient id="paint32_linear_21_2356" x1="62.4373" y1="-4.89865" x2="6.58997" y2="61.9381" gradientUnits="userSpaceOnUse">
<stop stop-color="#00C8DC"/>
<stop offset="1" stop-color="#0ABE50"/>
</linearGradient>
<linearGradient id="paint33_linear_21_2356" x1="62.6768" y1="-4.4314" x2="6.82955" y2="62.4054" gradientUnits="userSpaceOnUse">
<stop stop-color="#00C8DC"/>
<stop offset="1" stop-color="#0ABE50"/>
</linearGradient>
<linearGradient id="paint34_linear_21_2356" x1="53.3356" y1="-15.8962" x2="-2.51176" y2="50.9406" gradientUnits="userSpaceOnUse">
<stop stop-color="#00C8DC"/>
<stop offset="1" stop-color="#0ABE50"/>
</linearGradient>
<linearGradient id="paint35_linear_21_2356" x1="59.3032" y1="-9.70065" x2="3.45591" y2="57.1361" gradientUnits="userSpaceOnUse">
<stop stop-color="#00C8DC"/>
<stop offset="1" stop-color="#0ABE50"/>
</linearGradient>
<linearGradient id="paint36_linear_21_2356" x1="67.8105" y1="0.70782" x2="11.9632" y2="67.5446" gradientUnits="userSpaceOnUse">
<stop stop-color="#00C8DC"/>
<stop offset="1" stop-color="#0ABE50"/>
</linearGradient>
<linearGradient id="paint37_linear_21_2356" x1="66.9325" y1="-0.576856" x2="11.0852" y2="66.2599" gradientUnits="userSpaceOnUse">
<stop stop-color="#00C8DC"/>
<stop offset="1" stop-color="#0ABE50"/>
</linearGradient>
<linearGradient id="paint38_linear_21_2356" x1="67.0819" y1="-0.302116" x2="11.2346" y2="66.5346" gradientUnits="userSpaceOnUse">
<stop stop-color="#00C8DC"/>
<stop offset="1" stop-color="#0ABE50"/>
</linearGradient>
<linearGradient id="paint39_linear_21_2356" x1="66.2634" y1="0.552971" x2="10.6949" y2="67.0562" gradientUnits="userSpaceOnUse">
<stop stop-color="#00C8DC"/>
<stop offset="1" stop-color="#0ABE50"/>
</linearGradient>
<clipPath id="clip0_21_2356">
<rect width="171.429" height="50" fill="white"/>
</clipPath>
</defs>
</svg>
