<svg width="55" height="49" viewBox="0 0 55 49" fill="none" xmlns="http://www.w3.org/2000/svg">
<path d="M36.5689 20.173C38.9687 20.173 40.9142 18.2357 40.9142 15.8459C40.9142 13.4561 38.9687 11.5188 36.5689 11.5188C34.169 11.5188 32.2235 13.4561 32.2235 15.8459C32.2235 18.2357 34.169 20.173 36.5689 20.173Z" fill="white"/>
<path d="M28.0006 28.1569C30.2652 28.1569 32.1011 26.3287 32.1011 24.0736C32.1011 21.8184 30.2652 19.9902 28.0006 19.9902C25.7359 19.9902 23.9 21.8184 23.9 24.0736C23.9 26.3287 25.7359 28.1569 28.0006 28.1569Z" fill="white"/>
<path d="M46.4227 11.5188C48.6198 11.5188 50.4009 9.74523 50.4009 7.55739C50.4009 5.36955 48.6198 3.59595 46.4227 3.59595C44.2257 3.59595 42.4446 5.36955 42.4446 7.55739C42.4446 9.74523 44.2257 11.5188 46.4227 11.5188Z" fill="white"/>
<path d="M18.0859 36.1404C19.6408 36.1404 20.9012 34.8853 20.9012 33.3369C20.9012 31.7886 19.6408 30.5334 18.0859 30.5334C16.5311 30.5334 15.2706 31.7886 15.2706 33.3369C15.2706 34.8853 16.5311 36.1404 18.0859 36.1404Z" fill="white"/>
<path d="M38.8946 35.2871C40.4495 35.2871 41.7099 34.032 41.7099 32.4837C41.7099 30.9353 40.4495 29.6802 38.8946 29.6802C37.3398 29.6802 36.0793 30.9353 36.0793 32.4837C36.0793 34.032 37.3398 35.2871 38.8946 35.2871Z" fill="white"/>
<path d="M22.3089 31.448C23.83 31.448 25.063 30.2201 25.063 28.7054C25.063 27.1908 23.83 25.9629 22.3089 25.9629C20.7879 25.9629 19.5548 27.1908 19.5548 28.7054C19.5548 30.2201 20.7879 31.448 22.3089 31.448Z" fill="white"/>
<path d="M32.4687 31.2042C33.6855 31.2042 34.6719 30.2219 34.6719 29.0102C34.6719 27.7985 33.6855 26.8162 32.4687 26.8162C31.2518 26.8162 30.2654 27.7985 30.2654 29.0102C30.2654 30.2219 31.2518 31.2042 32.4687 31.2042Z" fill="white"/>
<path d="M29.7145 19.6244C30.8299 19.6244 31.7342 18.724 31.7342 17.6132C31.7342 16.5025 30.8299 15.6021 29.7145 15.6021C28.5991 15.6021 27.6948 16.5025 27.6948 17.6132C27.6948 18.724 28.5991 19.6244 29.7145 19.6244Z" fill="white"/>
<path d="M11.2925 39.6145C12.3065 39.6145 13.1286 38.7959 13.1286 37.7861C13.1286 36.7763 12.3065 35.9578 11.2925 35.9578C10.2785 35.9578 9.45642 36.7763 9.45642 37.7861C9.45642 38.7959 10.2785 39.6145 11.2925 39.6145Z" fill="white"/>
<path d="M29.8981 5.36308C30.946 5.36308 31.7954 4.51721 31.7954 3.47378C31.7954 2.43034 30.946 1.58447 29.8981 1.58447C28.8503 1.58447 28.0009 2.43034 28.0009 3.47378C28.0009 4.51721 28.8503 5.36308 29.8981 5.36308Z" fill="white"/>
<path d="M33.0193 8.34965C34.0672 8.34965 34.9166 7.50378 34.9166 6.46035C34.9166 5.41692 34.0672 4.57104 33.0193 4.57104C31.9715 4.57104 31.1221 5.41692 31.1221 6.46035C31.1221 7.50378 31.9715 8.34965 33.0193 8.34965Z" fill="white"/>
<path d="M41.8935 13.5908C42.7723 13.5908 43.4848 12.8813 43.4848 12.0062C43.4848 11.1311 42.7723 10.4216 41.8935 10.4216C41.0147 10.4216 40.3022 11.1311 40.3022 12.0062C40.3022 12.8813 41.0147 13.5908 41.8935 13.5908Z" fill="white"/>
<path d="M33.0804 37.2374C34.2635 37.2374 35.2225 36.2823 35.2225 35.1043C35.2225 33.9262 34.2635 32.9712 33.0804 32.9712C31.8974 32.9712 30.9384 33.9262 30.9384 35.1043C30.9384 36.2823 31.8974 37.2374 33.0804 37.2374Z" fill="white"/>
<path d="M14.9646 37.9686C15.6407 37.9686 16.1887 37.4229 16.1887 36.7497C16.1887 36.0765 15.6407 35.5308 14.9646 35.5308C14.2886 35.5308 13.7406 36.0765 13.7406 36.7497C13.7406 37.4229 14.2886 37.9686 14.9646 37.9686Z" fill="white"/>
<path d="M7.86514 42.296C8.71016 42.296 9.39519 41.6139 9.39519 40.7724C9.39519 39.9309 8.71016 39.2488 7.86514 39.2488C7.02011 39.2488 6.33508 39.9309 6.33508 40.7724C6.33508 41.6139 7.02011 42.296 7.86514 42.296Z" fill="white"/>
<path d="M28.429 38.6999C29.3079 38.6999 30.0203 37.9905 30.0203 37.1153C30.0203 36.2402 29.3079 35.5308 28.429 35.5308C27.5502 35.5308 26.8378 36.2402 26.8378 37.1153C26.8378 37.9905 27.5502 38.6999 28.429 38.6999Z" fill="white"/>
<path d="M26.2259 3.41268C27.0372 3.41268 27.6948 2.75781 27.6948 1.94999C27.6948 1.14217 27.0372 0.487305 26.2259 0.487305C25.4147 0.487305 24.7571 1.14217 24.7571 1.94999C24.7571 2.75781 25.4147 3.41268 26.2259 3.41268Z" fill="white"/>
<path d="M33.1416 11.9455C33.9867 11.9455 34.6717 11.2633 34.6717 10.4218C34.6717 9.58035 33.9867 8.89819 33.1416 8.89819C32.2966 8.89819 31.6116 9.58035 31.6116 10.4218C31.6116 11.2633 32.2966 11.9455 33.1416 11.9455Z" fill="white"/>
<path d="M37.3646 11.0313C38.4124 11.0313 39.2618 10.1854 39.2618 9.14199C39.2618 8.09856 38.4124 7.25269 37.3646 7.25269C36.3167 7.25269 35.4673 8.09856 35.4673 9.14199C35.4673 10.1854 36.3167 11.0313 37.3646 11.0313Z" fill="white"/>
<path d="M43.6684 24.3172C44.4797 24.3172 45.1373 23.6624 45.1373 22.8545C45.1373 22.0467 44.4797 21.3918 43.6684 21.3918C42.8572 21.3918 42.1996 22.0467 42.1996 22.8545C42.1996 23.6624 42.8572 24.3172 43.6684 24.3172Z" fill="white"/>
<path d="M51.1964 21.2701C52.0076 21.2701 52.6652 20.6152 52.6652 19.8074C52.6652 18.9996 52.0076 18.3447 51.1964 18.3447C50.3852 18.3447 49.7275 18.9996 49.7275 19.8074C49.7275 20.6152 50.3852 21.2701 51.1964 21.2701Z" fill="white"/>
<path d="M49.8498 23.0981C50.3568 23.0981 50.7678 22.6888 50.7678 22.184C50.7678 21.6791 50.3568 21.2698 49.8498 21.2698C49.3428 21.2698 48.9318 21.6791 48.9318 22.184C48.9318 22.6888 49.3428 23.0981 49.8498 23.0981Z" fill="white"/>
<path d="M42.2609 21.5139C43.4102 21.5139 44.3418 20.5862 44.3418 19.4418C44.3418 18.2974 43.4102 17.3696 42.2609 17.3696C41.1117 17.3696 40.1801 18.2974 40.1801 19.4418C40.1801 20.5862 41.1117 21.5139 42.2609 21.5139Z" fill="white"/>
<path d="M47.4019 26.5112C48.5512 26.5112 49.4828 25.5835 49.4828 24.4391C49.4828 23.2947 48.5512 22.3669 47.4019 22.3669C46.2527 22.3669 45.321 23.2947 45.321 24.4391C45.321 25.5835 46.2527 26.5112 47.4019 26.5112Z" fill="white"/>
<path d="M23.2881 2.74249C23.8289 2.74249 24.2673 2.30591 24.2673 1.76736C24.2673 1.22881 23.8289 0.792236 23.2881 0.792236C22.7473 0.792236 22.3088 1.22881 22.3088 1.76736C22.3088 2.30591 22.7473 2.74249 23.2881 2.74249Z" fill="white"/>
<path d="M17.1068 2.74249C17.6476 2.74249 18.086 2.30591 18.086 1.76736C18.086 1.22881 17.6476 0.792236 17.1068 0.792236C16.566 0.792236 16.1276 1.22881 16.1276 1.76736C16.1276 2.30591 16.566 2.74249 17.1068 2.74249Z" fill="white"/>
<path d="M15.2094 2.37711C15.5474 2.37711 15.8215 2.10425 15.8215 1.76766C15.8215 1.43106 15.5474 1.1582 15.2094 1.1582C14.8714 1.1582 14.5974 1.43106 14.5974 1.76766C14.5974 2.10425 14.8714 2.37711 15.2094 2.37711Z" fill="white"/>
<path d="M2.66293 49.0001C3.37275 49.0001 3.94818 48.4271 3.94818 47.7203C3.94818 47.0134 3.37275 46.4404 2.66293 46.4404C1.95311 46.4404 1.37769 47.0134 1.37769 47.7203C1.37769 48.4271 1.95311 49.0001 2.66293 49.0001Z" fill="white"/>
<path d="M30.5711 15.2365C31.4161 15.2365 32.1011 14.5543 32.1011 13.7128C32.1011 12.8714 31.4161 12.1892 30.5711 12.1892C29.726 12.1892 29.041 12.8714 29.041 13.7128C29.041 14.5543 29.726 15.2365 30.5711 15.2365Z" fill="white"/>
<path d="M20.0445 3.04726C20.8895 3.04726 21.5745 2.36511 21.5745 1.52363C21.5745 0.682153 20.8895 0 20.0445 0C19.1994 0 18.5144 0.682153 18.5144 1.52363C18.5144 2.36511 19.1994 3.04726 20.0445 3.04726Z" fill="white"/>
<path d="M5.11125 43.637C5.78727 43.637 6.33529 43.0913 6.33529 42.4181C6.33529 41.7449 5.78727 41.1992 5.11125 41.1992C4.43523 41.1992 3.88721 41.7449 3.88721 42.4181C3.88721 43.0913 4.43523 43.637 5.11125 43.637Z" fill="white"/>
<path d="M36.5689 29.9241C37.3463 29.9241 37.9766 29.2965 37.9766 28.5223C37.9766 27.7482 37.3463 27.1206 36.5689 27.1206C35.7915 27.1206 35.1613 27.7482 35.1613 28.5223C35.1613 29.2965 35.7915 29.9241 36.5689 29.9241Z" fill="white"/>
<path d="M25.4302 39.8582C26.0724 39.8582 26.593 39.3397 26.593 38.7002C26.593 38.0607 26.0724 37.5422 25.4302 37.5422C24.788 37.5422 24.2673 38.0607 24.2673 38.7002C24.2673 39.3397 24.788 39.8582 25.4302 39.8582Z" fill="white"/>
<path d="M23.2882 43.5761C24.167 43.5761 24.8794 42.8667 24.8794 41.9916C24.8794 41.1164 24.167 40.407 23.2882 40.407C22.4093 40.407 21.6969 41.1164 21.6969 41.9916C21.6969 42.8667 22.4093 43.5761 23.2882 43.5761Z" fill="white"/>
<path d="M2.17343 46.1967C2.88325 46.1967 3.45868 45.6237 3.45868 44.9168C3.45868 44.21 2.88325 43.637 2.17343 43.637C1.46361 43.637 0.888184 44.21 0.888184 44.9168C0.888184 45.6237 1.46361 46.1967 2.17343 46.1967Z" fill="white"/>
<path d="M33.1417 22.6107C33.9529 22.6107 34.6106 21.9558 34.6106 21.148C34.6106 20.3402 33.9529 19.6853 33.1417 19.6853C32.3305 19.6853 31.6729 20.3402 31.6729 21.148C31.6729 21.9558 32.3305 22.6107 33.1417 22.6107Z" fill="white"/>
<path d="M52.8489 18.6492C53.2545 18.6492 53.5834 18.3218 53.5834 17.9179C53.5834 17.514 53.2545 17.1865 52.8489 17.1865C52.4433 17.1865 52.1145 17.514 52.1145 17.9179C52.1145 18.3218 52.4433 18.6492 52.8489 18.6492Z" fill="white"/>
<path d="M54.0729 14.6267C54.3433 14.6267 54.5625 14.4084 54.5625 14.1392C54.5625 13.8699 54.3433 13.6516 54.0729 13.6516C53.8025 13.6516 53.5833 13.8699 53.5833 14.1392C53.5833 14.4084 53.8025 14.6267 54.0729 14.6267Z" fill="white"/>
<path d="M53.0324 16.9428C53.6408 16.9428 54.1341 16.4517 54.1341 15.8458C54.1341 15.2399 53.6408 14.7488 53.0324 14.7488C52.424 14.7488 51.9308 15.2399 51.9308 15.8458C51.9308 16.4517 52.424 16.9428 53.0324 16.9428Z" fill="white"/>
</svg>
