<svg width="60" height="60" viewBox="0 0 60 60" fill="none" xmlns="http://www.w3.org/2000/svg">
<rect width="60" height="60" rx="16" fill="white"/>
<path d="M36.2145 26.8209C37.9776 26.8209 39.407 25.3975 39.407 23.6418C39.407 21.886 37.9776 20.4626 36.2145 20.4626C34.4513 20.4626 33.022 21.886 33.022 23.6418C33.022 25.3975 34.4513 26.8209 36.2145 26.8209Z" fill="url(#paint0_linear_21_2023)"/>
<path d="M29.9194 32.6865C31.5832 32.6865 32.932 31.3434 32.932 29.6865C32.932 28.0297 31.5832 26.6865 29.9194 26.6865C28.2555 26.6865 26.9067 28.0297 26.9067 29.6865C26.9067 31.3434 28.2555 32.6865 29.9194 32.6865Z" fill="url(#paint1_linear_21_2023)"/>
<path d="M43.454 20.4627C45.0681 20.4627 46.3767 19.1597 46.3767 17.5523C46.3767 15.9449 45.0681 14.6418 43.454 14.6418C41.8398 14.6418 40.5312 15.9449 40.5312 17.5523C40.5312 19.1597 41.8398 20.4627 43.454 20.4627Z" fill="url(#paint2_linear_21_2023)"/>
<path d="M22.6353 38.5523C23.7776 38.5523 24.7037 37.6301 24.7037 36.4926C24.7037 35.355 23.7776 34.4329 22.6353 34.4329C21.4929 34.4329 20.5669 35.355 20.5669 36.4926C20.5669 37.6301 21.4929 38.5523 22.6353 38.5523Z" fill="url(#paint3_linear_21_2023)"/>
<path d="M37.9231 37.9253C39.0655 37.9253 39.9915 37.0032 39.9915 35.8656C39.9915 34.7281 39.0655 33.8059 37.9231 33.8059C36.7808 33.8059 35.8547 34.7281 35.8547 35.8656C35.8547 37.0032 36.7808 37.9253 37.9231 37.9253Z" fill="url(#paint4_linear_21_2023)"/>
<path d="M25.7378 35.1043C26.8553 35.1043 27.7612 34.2022 27.7612 33.0894C27.7612 31.9766 26.8553 31.0745 25.7378 31.0745C24.6203 31.0745 23.7144 31.9766 23.7144 33.0894C23.7144 34.2022 24.6203 35.1043 25.7378 35.1043Z" fill="url(#paint5_linear_21_2023)"/>
<path d="M33.202 34.9255C34.096 34.9255 34.8207 34.2038 34.8207 33.3136C34.8207 32.4233 34.096 31.7017 33.202 31.7017C32.308 31.7017 31.5833 32.4233 31.5833 33.3136C31.5833 34.2038 32.308 34.9255 33.202 34.9255Z" fill="url(#paint6_linear_21_2023)"/>
<path d="M31.1784 26.4179C31.9979 26.4179 32.6623 25.7563 32.6623 24.9403C32.6623 24.1242 31.9979 23.4626 31.1784 23.4626C30.3589 23.4626 29.6946 24.1242 29.6946 24.9403C29.6946 25.7563 30.3589 26.4179 31.1784 26.4179Z" fill="url(#paint7_linear_21_2023)"/>
<path d="M17.6441 41.1045C18.3891 41.1045 18.9931 40.5031 18.9931 39.7613C18.9931 39.0194 18.3891 38.418 17.6441 38.418C16.8991 38.418 16.2952 39.0194 16.2952 39.7613C16.2952 40.5031 16.8991 41.1045 17.6441 41.1045Z" fill="url(#paint8_linear_21_2023)"/>
<path d="M31.3133 15.9404C32.0832 15.9404 32.7073 15.319 32.7073 14.5524C32.7073 13.7858 32.0832 13.1643 31.3133 13.1643C30.5435 13.1643 29.9194 13.7858 29.9194 14.5524C29.9194 15.319 30.5435 15.9404 31.3133 15.9404Z" fill="url(#paint9_linear_21_2023)"/>
<path d="M33.6066 18.1343C34.3764 18.1343 35.0005 17.5128 35.0005 16.7462C35.0005 15.9796 34.3764 15.3582 33.6066 15.3582C32.8367 15.3582 32.2126 15.9796 32.2126 16.7462C32.2126 17.5128 32.8367 18.1343 33.6066 18.1343Z" fill="url(#paint10_linear_21_2023)"/>
<path d="M40.1266 21.9851C40.7723 21.9851 41.2957 21.4639 41.2957 20.8209C41.2957 20.178 40.7723 19.6567 40.1266 19.6567C39.4809 19.6567 38.9575 20.178 38.9575 20.8209C38.9575 21.4639 39.4809 21.9851 40.1266 21.9851Z" fill="url(#paint11_linear_21_2023)"/>
<path d="M33.6517 39.3582C34.5208 39.3582 35.2254 38.6566 35.2254 37.791C35.2254 36.9255 34.5208 36.2239 33.6517 36.2239C32.7825 36.2239 32.0779 36.9255 32.0779 37.791C32.0779 38.6566 32.7825 39.3582 33.6517 39.3582Z" fill="url(#paint12_linear_21_2023)"/>
<path d="M20.3419 39.8955C20.8386 39.8955 21.2412 39.4946 21.2412 39C21.2412 38.5054 20.8386 38.1045 20.3419 38.1045C19.8453 38.1045 19.4426 38.5054 19.4426 39C19.4426 39.4946 19.8453 39.8955 20.3419 39.8955Z" fill="url(#paint13_linear_21_2023)"/>
<path d="M15.1261 43.0747C15.7469 43.0747 16.2502 42.5736 16.2502 41.9553C16.2502 41.3371 15.7469 40.8359 15.1261 40.8359C14.5052 40.8359 14.002 41.3371 14.002 41.9553C14.002 42.5736 14.5052 43.0747 15.1261 43.0747Z" fill="url(#paint14_linear_21_2023)"/>
<path d="M30.2343 40.4329C30.8799 40.4329 31.4034 39.9116 31.4034 39.2687C31.4034 38.6257 30.8799 38.1045 30.2343 38.1045C29.5886 38.1045 29.0652 38.6257 29.0652 39.2687C29.0652 39.9116 29.5886 40.4329 30.2343 40.4329Z" fill="url(#paint15_linear_21_2023)"/>
<path d="M28.6155 14.5074C29.2115 14.5074 29.6947 14.0263 29.6947 13.4328C29.6947 12.8393 29.2115 12.3582 28.6155 12.3582C28.0195 12.3582 27.5364 12.8393 27.5364 13.4328C27.5364 14.0263 28.0195 14.5074 28.6155 14.5074Z" fill="url(#paint16_linear_21_2023)"/>
<path d="M33.6964 20.7762C34.3172 20.7762 34.8205 20.275 34.8205 19.6568C34.8205 19.0385 34.3172 18.5374 33.6964 18.5374C33.0756 18.5374 32.5723 19.0385 32.5723 19.6568C32.5723 20.275 33.0756 20.7762 33.6964 20.7762Z" fill="url(#paint17_linear_21_2023)"/>
<path d="M36.7992 20.1045C37.569 20.1045 38.1931 19.483 38.1931 18.7164C38.1931 17.9498 37.569 17.3284 36.7992 17.3284C36.0293 17.3284 35.4053 17.9498 35.4053 18.7164C35.4053 19.483 36.0293 20.1045 36.7992 20.1045Z" fill="url(#paint18_linear_21_2023)"/>
<path d="M41.4305 29.8656C42.0265 29.8656 42.5096 29.3844 42.5096 28.7909C42.5096 28.1974 42.0265 27.7163 41.4305 27.7163C40.8345 27.7163 40.3513 28.1974 40.3513 28.7909C40.3513 29.3844 40.8345 29.8656 41.4305 29.8656Z" fill="url(#paint19_linear_21_2023)"/>
<path d="M46.9612 27.627C47.5572 27.627 48.0404 27.1459 48.0404 26.5524C48.0404 25.9589 47.5572 25.4778 46.9612 25.4778C46.3652 25.4778 45.8821 25.9589 45.8821 26.5524C45.8821 27.1459 46.3652 27.627 46.9612 27.627Z" fill="url(#paint20_linear_21_2023)"/>
<path d="M45.9718 28.9702C46.3443 28.9702 46.6463 28.6695 46.6463 28.2986C46.6463 27.9277 46.3443 27.627 45.9718 27.627C45.5993 27.627 45.2974 27.9277 45.2974 28.2986C45.2974 28.6695 45.5993 28.9702 45.9718 28.9702Z" fill="url(#paint21_linear_21_2023)"/>
<path d="M40.3962 27.806C41.2406 27.806 41.925 27.1244 41.925 26.2836C41.925 25.4428 41.2406 24.7612 40.3962 24.7612C39.5519 24.7612 38.8674 25.4428 38.8674 26.2836C38.8674 27.1244 39.5519 27.806 40.3962 27.806Z" fill="url(#paint22_linear_21_2023)"/>
<path d="M44.1733 31.4776C45.0177 31.4776 45.7021 30.796 45.7021 29.9552C45.7021 29.1145 45.0177 28.4329 44.1733 28.4329C43.329 28.4329 42.6445 29.1145 42.6445 29.9552C42.6445 30.796 43.329 31.4776 44.1733 31.4776Z" fill="url(#paint23_linear_21_2023)"/>
<path d="M26.4572 14.0149C26.8546 14.0149 27.1767 13.6941 27.1767 13.2984C27.1767 12.9028 26.8546 12.582 26.4572 12.582C26.0599 12.582 25.7378 12.9028 25.7378 13.2984C25.7378 13.6941 26.0599 14.0149 26.4572 14.0149Z" fill="url(#paint24_linear_21_2023)"/>
<path d="M21.9157 14.0149C22.3131 14.0149 22.6352 13.6941 22.6352 13.2984C22.6352 12.9028 22.3131 12.582 21.9157 12.582C21.5184 12.582 21.1963 12.9028 21.1963 13.2984C21.1963 13.6941 21.5184 14.0149 21.9157 14.0149Z" fill="url(#paint25_linear_21_2023)"/>
<path d="M20.5217 13.7464C20.77 13.7464 20.9713 13.5459 20.9713 13.2986C20.9713 13.0513 20.77 12.8508 20.5217 12.8508C20.2733 12.8508 20.072 13.0513 20.072 13.2986C20.072 13.5459 20.2733 13.7464 20.5217 13.7464Z" fill="url(#paint26_linear_21_2023)"/>
<path d="M11.3041 48C11.8256 48 12.2484 47.579 12.2484 47.0597C12.2484 46.5404 11.8256 46.1194 11.3041 46.1194C10.7826 46.1194 10.3599 46.5404 10.3599 47.0597C10.3599 47.579 10.7826 48 11.3041 48Z" fill="url(#paint27_linear_21_2023)"/>
<path d="M31.808 23.1939C32.4288 23.1939 32.9321 22.6927 32.9321 22.0745C32.9321 21.4563 32.4288 20.9551 31.808 20.9551C31.1871 20.9551 30.6838 21.4563 30.6838 22.0745C30.6838 22.6927 31.1871 23.1939 31.808 23.1939Z" fill="url(#paint28_linear_21_2023)"/>
<path d="M24.0741 14.2388C24.6949 14.2388 25.1982 13.7376 25.1982 13.1194C25.1982 12.5012 24.6949 12 24.0741 12C23.4532 12 22.95 12.5012 22.95 13.1194C22.95 13.7376 23.4532 14.2388 24.0741 14.2388Z" fill="url(#paint29_linear_21_2023)"/>
<path d="M13.1027 44.0596C13.5993 44.0596 14.002 43.6587 14.002 43.1641C14.002 42.6695 13.5993 42.2686 13.1027 42.2686C12.606 42.2686 12.2034 42.6695 12.2034 43.1641C12.2034 43.6587 12.606 44.0596 13.1027 44.0596Z" fill="url(#paint30_linear_21_2023)"/>
<path d="M36.2146 33.985C36.7858 33.985 37.2488 33.5239 37.2488 32.9551C37.2488 32.3864 36.7858 31.9253 36.2146 31.9253C35.6434 31.9253 35.1804 32.3864 35.1804 32.9551C35.1804 33.5239 35.6434 33.985 36.2146 33.985Z" fill="url(#paint31_linear_21_2023)"/>
<path d="M28.0308 41.2835C28.5027 41.2835 28.8852 40.9026 28.8852 40.4328C28.8852 39.9629 28.5027 39.582 28.0308 39.582C27.559 39.582 27.1765 39.9629 27.1765 40.4328C27.1765 40.9026 27.559 41.2835 28.0308 41.2835Z" fill="url(#paint32_linear_21_2023)"/>
<path d="M26.4572 44.0149C27.1028 44.0149 27.6263 43.4937 27.6263 42.8507C27.6263 42.2077 27.1028 41.6865 26.4572 41.6865C25.8115 41.6865 25.2881 42.2077 25.2881 42.8507C25.2881 43.4937 25.8115 44.0149 26.4572 44.0149Z" fill="url(#paint33_linear_21_2023)"/>
<path d="M10.9443 45.9402C11.4658 45.9402 11.8885 45.5192 11.8885 44.9999C11.8885 44.4806 11.4658 44.0596 10.9443 44.0596C10.4228 44.0596 10 44.4806 10 44.9999C10 45.5192 10.4228 45.9402 10.9443 45.9402Z" fill="url(#paint34_linear_21_2023)"/>
<path d="M33.6966 28.6119C34.2926 28.6119 34.7757 28.1308 34.7757 27.5373C34.7757 26.9438 34.2926 26.4626 33.6966 26.4626C33.1006 26.4626 32.6174 26.9438 32.6174 27.5373C32.6174 28.1308 33.1006 28.6119 33.6966 28.6119Z" fill="url(#paint35_linear_21_2023)"/>
<path d="M48.1751 25.7016C48.4731 25.7016 48.7147 25.461 48.7147 25.1643C48.7147 24.8675 48.4731 24.627 48.1751 24.627C47.8771 24.627 47.6355 24.8675 47.6355 25.1643C47.6355 25.461 47.8771 25.7016 48.1751 25.7016Z" fill="url(#paint36_linear_21_2023)"/>
<path d="M49.0746 22.7462C49.2732 22.7462 49.4343 22.5858 49.4343 22.388C49.4343 22.1902 49.2732 22.0298 49.0746 22.0298C48.8759 22.0298 48.7148 22.1902 48.7148 22.388C48.7148 22.5858 48.8759 22.7462 49.0746 22.7462Z" fill="url(#paint37_linear_21_2023)"/>
<path d="M48.3101 24.4479C48.7571 24.4479 49.1195 24.087 49.1195 23.6419C49.1195 23.1968 48.7571 22.8359 48.3101 22.8359C47.8631 22.8359 47.5007 23.1968 47.5007 23.6419C47.5007 24.087 47.8631 24.4479 48.3101 24.4479Z" fill="url(#paint38_linear_21_2023)"/>
<path d="M31.1336 42.8506C31.7181 42.8506 32.2128 43.2983 32.2128 43.9252C32.2128 44.5521 31.7181 44.9998 31.1336 44.9998C30.5491 44.9998 30.0544 44.5521 30.0544 43.9252C30.0544 43.2983 30.5491 42.8506 31.1336 42.8506ZM31.1336 43.0745C30.684 43.0745 30.3242 43.4327 30.3242 43.9252C30.3242 44.373 30.684 44.776 31.1336 44.776C31.5832 44.776 31.943 44.4178 31.943 43.9252C31.943 43.4775 31.6282 43.0745 31.1336 43.0745ZM30.9537 44.4625H30.7289V43.3879C30.8188 43.3879 30.9537 43.3431 31.1336 43.3431C31.3135 43.3431 31.4034 43.3879 31.4933 43.4327C31.5383 43.4774 31.5832 43.567 31.5832 43.6566C31.5832 43.7909 31.4933 43.8804 31.3584 43.9252C31.4484 43.97 31.4933 44.0595 31.5383 44.1939C31.5833 44.373 31.5832 44.4177 31.6282 44.4625H31.3584C31.3135 44.4177 31.3135 44.3282 31.2685 44.1939C31.2685 44.1043 31.1786 44.0148 31.0437 44.0148H30.9088V44.4625H30.9537ZM30.9987 43.8804H31.1336C31.2685 43.8804 31.3584 43.8357 31.3584 43.7461C31.3584 43.6566 31.2685 43.567 31.1336 43.567C31.0886 43.567 31.0437 43.567 30.9987 43.567V43.8804Z" fill="url(#paint39_linear_21_2023)"/>
<defs>
<linearGradient id="paint0_linear_21_2023" x1="52.3956" y1="4.44224" x2="12.1856" y2="52.5647" gradientUnits="userSpaceOnUse">
<stop stop-color="#00C8DC"/>
<stop offset="1" stop-color="#0ABE50"/>
</linearGradient>
<linearGradient id="paint1_linear_21_2023" x1="51.681" y1="3.85966" x2="11.471" y2="51.9821" gradientUnits="userSpaceOnUse">
<stop stop-color="#00C8DC"/>
<stop offset="1" stop-color="#0ABE50"/>
</linearGradient>
<linearGradient id="paint2_linear_21_2023" x1="53.5562" y1="5.57679" x2="13.3461" y2="53.6993" gradientUnits="userSpaceOnUse">
<stop stop-color="#00C8DC"/>
<stop offset="1" stop-color="#0ABE50"/>
</linearGradient>
<linearGradient id="paint3_linear_21_2023" x1="50.7834" y1="3.08559" x2="10.5733" y2="51.2081" gradientUnits="userSpaceOnUse">
<stop stop-color="#00C8DC"/>
<stop offset="1" stop-color="#0ABE50"/>
</linearGradient>
<linearGradient id="paint4_linear_21_2023" x1="58.0098" y1="12.0409" x2="17.7998" y2="60.1633" gradientUnits="userSpaceOnUse">
<stop stop-color="#00C8DC"/>
<stop offset="1" stop-color="#0ABE50"/>
</linearGradient>
<linearGradient id="paint5_linear_21_2023" x1="50.9852" y1="3.16605" x2="10.7752" y2="51.2885" gradientUnits="userSpaceOnUse">
<stop stop-color="#00C8DC"/>
<stop offset="1" stop-color="#0ABE50"/>
</linearGradient>
<linearGradient id="paint6_linear_21_2023" x1="54.7015" y1="7.79663" x2="14.4915" y2="55.9191" gradientUnits="userSpaceOnUse">
<stop stop-color="#00C8DC"/>
<stop offset="1" stop-color="#0ABE50"/>
</linearGradient>
<linearGradient id="paint7_linear_21_2023" x1="50.4534" y1="2.09293" x2="10.2434" y2="50.2154" gradientUnits="userSpaceOnUse">
<stop stop-color="#00C8DC"/>
<stop offset="1" stop-color="#0ABE50"/>
</linearGradient>
<linearGradient id="paint8_linear_21_2023" x1="49.618" y1="1.80333" x2="9.40788" y2="49.9258" gradientUnits="userSpaceOnUse">
<stop stop-color="#00C8DC"/>
<stop offset="1" stop-color="#0ABE50"/>
</linearGradient>
<linearGradient id="paint9_linear_21_2023" x1="46.4494" y1="-3.41195" x2="6.23935" y2="44.7105" gradientUnits="userSpaceOnUse">
<stop stop-color="#00C8DC"/>
<stop offset="1" stop-color="#0ABE50"/>
</linearGradient>
<linearGradient id="paint10_linear_21_2023" x1="48.4224" y1="-0.848337" x2="8.21235" y2="47.2741" gradientUnits="userSpaceOnUse">
<stop stop-color="#00C8DC"/>
<stop offset="1" stop-color="#0ABE50"/>
</linearGradient>
<linearGradient id="paint11_linear_21_2023" x1="53.2037" y1="5.30465" x2="12.9937" y2="53.4271" gradientUnits="userSpaceOnUse">
<stop stop-color="#00C8DC"/>
<stop offset="1" stop-color="#0ABE50"/>
</linearGradient>
<linearGradient id="paint12_linear_21_2023" x1="56.6539" y1="10.4505" x2="16.4438" y2="58.5729" gradientUnits="userSpaceOnUse">
<stop stop-color="#00C8DC"/>
<stop offset="1" stop-color="#0ABE50"/>
</linearGradient>
<linearGradient id="paint13_linear_21_2023" x1="50.6478" y1="3.04417" x2="10.4378" y2="51.1666" gradientUnits="userSpaceOnUse">
<stop stop-color="#00C8DC"/>
<stop offset="1" stop-color="#0ABE50"/>
</linearGradient>
<linearGradient id="paint14_linear_21_2023" x1="49.2428" y1="1.4471" x2="9.03278" y2="49.5696" gradientUnits="userSpaceOnUse">
<stop stop-color="#00C8DC"/>
<stop offset="1" stop-color="#0ABE50"/>
</linearGradient>
<linearGradient id="paint15_linear_21_2023" x1="55.5772" y1="9.18749" x2="15.3671" y2="57.3099" gradientUnits="userSpaceOnUse">
<stop stop-color="#00C8DC"/>
<stop offset="1" stop-color="#0ABE50"/>
</linearGradient>
<linearGradient id="paint16_linear_21_2023" x1="44.6987" y1="-5.64417" x2="4.48872" y2="42.4783" gradientUnits="userSpaceOnUse">
<stop stop-color="#00C8DC"/>
<stop offset="1" stop-color="#0ABE50"/>
</linearGradient>
<linearGradient id="paint17_linear_21_2023" x1="49.6042" y1="0.770101" x2="9.39416" y2="48.8926" gradientUnits="userSpaceOnUse">
<stop stop-color="#00C8DC"/>
<stop offset="1" stop-color="#0ABE50"/>
</linearGradient>
<linearGradient id="paint18_linear_21_2023" x1="50.7546" y1="2.15222" x2="10.5445" y2="50.2747" gradientUnits="userSpaceOnUse">
<stop stop-color="#00C8DC"/>
<stop offset="1" stop-color="#0ABE50"/>
</linearGradient>
<linearGradient id="paint19_linear_21_2023" x1="56.9659" y1="10.3847" x2="16.7559" y2="58.5072" gradientUnits="userSpaceOnUse">
<stop stop-color="#00C8DC"/>
<stop offset="1" stop-color="#0ABE50"/>
</linearGradient>
<linearGradient id="paint20_linear_21_2023" x1="58.7817" y1="12.5301" x2="18.5716" y2="60.6526" gradientUnits="userSpaceOnUse">
<stop stop-color="#00C8DC"/>
<stop offset="1" stop-color="#0ABE50"/>
</linearGradient>
<linearGradient id="paint21_linear_21_2023" x1="58.9716" y1="12.8541" x2="18.7615" y2="60.9766" gradientUnits="userSpaceOnUse">
<stop stop-color="#00C8DC"/>
<stop offset="1" stop-color="#0ABE50"/>
</linearGradient>
<linearGradient id="paint22_linear_21_2023" x1="55.4523" y1="8.37474" x2="15.2423" y2="56.4972" gradientUnits="userSpaceOnUse">
<stop stop-color="#00C8DC"/>
<stop offset="1" stop-color="#0ABE50"/>
</linearGradient>
<linearGradient id="paint23_linear_21_2023" x1="58.7391" y1="12.6474" x2="18.5291" y2="60.7698" gradientUnits="userSpaceOnUse">
<stop stop-color="#00C8DC"/>
<stop offset="1" stop-color="#0ABE50"/>
</linearGradient>
<linearGradient id="paint24_linear_21_2023" x1="43.5951" y1="-7.0244" x2="3.38512" y2="41.0981" gradientUnits="userSpaceOnUse">
<stop stop-color="#00C8DC"/>
<stop offset="1" stop-color="#0ABE50"/>
</linearGradient>
<linearGradient id="paint25_linear_21_2023" x1="41.3625" y1="-9.80034" x2="1.15247" y2="38.3221" gradientUnits="userSpaceOnUse">
<stop stop-color="#00C8DC"/>
<stop offset="1" stop-color="#0ABE50"/>
</linearGradient>
<linearGradient id="paint26_linear_21_2023" x1="40.6842" y1="-10.6434" x2="0.474197" y2="37.4791" gradientUnits="userSpaceOnUse">
<stop stop-color="#00C8DC"/>
<stop offset="1" stop-color="#0ABE50"/>
</linearGradient>
<linearGradient id="paint27_linear_21_2023" x1="49.398" y1="1.89938" x2="9.18796" y2="50.0219" gradientUnits="userSpaceOnUse">
<stop stop-color="#00C8DC"/>
<stop offset="1" stop-color="#0ABE50"/>
</linearGradient>
<linearGradient id="paint28_linear_21_2023" x1="49.6261" y1="0.919021" x2="9.41598" y2="49.0415" gradientUnits="userSpaceOnUse">
<stop stop-color="#00C8DC"/>
<stop offset="1" stop-color="#0ABE50"/>
</linearGradient>
<linearGradient id="paint29_linear_21_2023" x1="42.3655" y1="-8.56097" x2="2.15544" y2="39.5615" gradientUnits="userSpaceOnUse">
<stop stop-color="#00C8DC"/>
<stop offset="1" stop-color="#0ABE50"/>
</linearGradient>
<linearGradient id="paint30_linear_21_2023" x1="48.7259" y1="0.86457" x2="8.51591" y2="48.987" gradientUnits="userSpaceOnUse">
<stop stop-color="#00C8DC"/>
<stop offset="1" stop-color="#0ABE50"/>
</linearGradient>
<linearGradient id="paint31_linear_21_2023" x1="56.0319" y1="9.4339" x2="15.8218" y2="57.5564" gradientUnits="userSpaceOnUse">
<stop stop-color="#00C8DC"/>
<stop offset="1" stop-color="#0ABE50"/>
</linearGradient>
<linearGradient id="paint32_linear_21_2023" x1="54.9547" y1="8.47281" x2="14.7447" y2="56.5953" gradientUnits="userSpaceOnUse">
<stop stop-color="#00C8DC"/>
<stop offset="1" stop-color="#0ABE50"/>
</linearGradient>
<linearGradient id="paint33_linear_21_2023" x1="55.1273" y1="8.80927" x2="14.9173" y2="56.9317" gradientUnits="userSpaceOnUse">
<stop stop-color="#00C8DC"/>
<stop offset="1" stop-color="#0ABE50"/>
</linearGradient>
<linearGradient id="paint34_linear_21_2023" x1="48.4016" y1="0.554645" x2="8.19153" y2="48.6771" gradientUnits="userSpaceOnUse">
<stop stop-color="#00C8DC"/>
<stop offset="1" stop-color="#0ABE50"/>
</linearGradient>
<linearGradient id="paint35_linear_21_2023" x1="52.6985" y1="5.0156" x2="12.4884" y2="53.1381" gradientUnits="userSpaceOnUse">
<stop stop-color="#00C8DC"/>
<stop offset="1" stop-color="#0ABE50"/>
</linearGradient>
<linearGradient id="paint36_linear_21_2023" x1="58.8234" y1="12.5099" x2="18.6134" y2="60.6324" gradientUnits="userSpaceOnUse">
<stop stop-color="#00C8DC"/>
<stop offset="1" stop-color="#0ABE50"/>
</linearGradient>
<linearGradient id="paint37_linear_21_2023" x1="58.1915" y1="11.5847" x2="17.9814" y2="59.7072" gradientUnits="userSpaceOnUse">
<stop stop-color="#00C8DC"/>
<stop offset="1" stop-color="#0ABE50"/>
</linearGradient>
<linearGradient id="paint38_linear_21_2023" x1="58.299" y1="11.7826" x2="18.089" y2="59.905" gradientUnits="userSpaceOnUse">
<stop stop-color="#00C8DC"/>
<stop offset="1" stop-color="#0ABE50"/>
</linearGradient>
<linearGradient id="paint39_linear_21_2023" x1="57.7097" y1="12.3981" x2="17.7004" y2="60.2804" gradientUnits="userSpaceOnUse">
<stop stop-color="#00C8DC"/>
<stop offset="1" stop-color="#0ABE50"/>
</linearGradient>
</defs>
</svg>
