<svg width="31" height="25" viewBox="0 0 31 25" fill="none" xmlns="http://www.w3.org/2000/svg">
<path d="M17.6394 25H29.2535V12.7622H23.9268C24.2178 11.014 24.9746 9.49883 26.1972 8.21678C27.4197 6.93473 29.0207 6.0606 31 5.5944V0C26.5756 0.932399 23.2282 2.91375 20.9577 5.94406C18.7455 8.97436 17.6394 12.8205 17.6394 17.4825V25ZM0 25H11.5268V12.7622H6.2C6.49108 11.014 7.24789 9.49883 8.47042 8.21678C9.69296 6.93473 11.2939 6.0606 13.2732 5.5944V0C8.90704 0.932399 5.58873 2.91375 3.31831 5.94406C1.1061 8.97436 0 12.8205 0 17.4825V25Z" fill="#6B50F6"/>
<path d="M17.6394 25H29.2535V12.7622H23.9268C24.2178 11.014 24.9746 9.49883 26.1972 8.21678C27.4197 6.93473 29.0207 6.0606 31 5.5944V0C26.5756 0.932399 23.2282 2.91375 20.9577 5.94406C18.7455 8.97436 17.6394 12.8205 17.6394 17.4825V25ZM0 25H11.5268V12.7622H6.2C6.49108 11.014 7.24789 9.49883 8.47042 8.21678C9.69296 6.93473 11.2939 6.0606 13.2732 5.5944V0C8.90704 0.932399 5.58873 2.91375 3.31831 5.94406C1.1061 8.97436 0 12.8205 0 17.4825V25Z" fill="url(#paint0_linear_91_1597)"/>
<defs>
<linearGradient id="paint0_linear_91_1597" x1="23.8116" y1="-19.4584" x2="-11.5909" y2="-6.38047" gradientUnits="userSpaceOnUse">
<stop stop-color="#00C8DC"/>
<stop offset="1" stop-color="#0ABE50"/>
</linearGradient>
</defs>
</svg>
