<svg width="48" height="48" viewBox="0 0 48 48" fill="none" xmlns="http://www.w3.org/2000/svg">
<path d="M8.96876 11.8421C8.71145 11.8063 8.44252 11.8215 8.17579 11.8929L4.31251 12.9281C3.24565 13.2141 2.61268 14.3104 2.89844 15.3773L3.15626 16.3421C3.29787 16.8749 2.98162 17.4218 2.44923 17.5648L1.48438 17.8265C0.417522 18.1125 -0.215446 19.2088 0.070319 20.2757L3.17579 31.8656C3.46177 32.9324 4.55809 33.5654 5.62501 33.2796L6.58985 33.0218C7.12388 32.8777 7.67346 33.1945 7.81641 33.7289L8.07423 34.6937C8.3602 35.7606 9.45653 36.3935 10.5234 36.1078L14.3867 35.0726C15.4536 34.7866 16.0866 33.6903 15.8008 32.6234L13.8683 25.4135C13.7253 24.8801 14.0259 24.2829 14.5471 24.1005C17.0871 23.2113 20.2425 22.5179 24 22.5179C27.7576 22.5179 30.913 23.2113 33.4531 24.1005C33.9742 24.283 34.2747 24.8801 34.1317 25.4135L32.1992 32.6234C31.9135 33.6903 32.5464 34.7866 33.6133 35.0726L37.4766 36.1078C38.5435 36.3935 39.6398 35.7606 39.9258 34.6937L40.1836 33.7289C40.3265 33.1945 40.8761 32.8777 41.4102 33.0218L42.375 33.2796C43.4419 33.5654 44.5382 32.9324 44.8242 31.8656L47.9297 20.2757C48.2155 19.2088 47.5825 18.1125 46.5156 17.8265L45.5508 17.5648C45.0184 17.4218 44.7021 16.8749 44.8438 16.3421L45.1016 15.3773C45.3873 14.3104 44.7544 13.2141 43.6875 12.9281L39.8242 11.8929C38.7573 11.6072 37.661 12.2401 37.375 13.307L35.6845 19.6184C35.5416 20.1519 35.0072 20.425 34.4846 20.2466C31.5969 19.2611 28.0699 18.5179 24 18.5179C19.93 18.5179 16.4029 19.2612 13.5153 20.2467C12.9927 20.425 12.4584 20.1519 12.3155 19.6184L10.625 13.307C10.4105 12.5068 9.74068 11.9497 8.96876 11.8421Z" fill="black"/>
<path d="M8.96876 11.8421C8.71145 11.8063 8.44252 11.8215 8.17579 11.8929L4.31251 12.9281C3.24565 13.2141 2.61268 14.3104 2.89844 15.3773L3.15626 16.3421C3.29787 16.8749 2.98162 17.4218 2.44923 17.5648L1.48438 17.8265C0.417522 18.1125 -0.215446 19.2088 0.070319 20.2757L3.17579 31.8656C3.46177 32.9324 4.55809 33.5654 5.62501 33.2796L6.58985 33.0218C7.12388 32.8777 7.67346 33.1945 7.81641 33.7289L8.07423 34.6937C8.3602 35.7606 9.45653 36.3935 10.5234 36.1078L14.3867 35.0726C15.4536 34.7866 16.0866 33.6903 15.8008 32.6234L13.8683 25.4135C13.7253 24.8801 14.0259 24.2829 14.5471 24.1005C17.0871 23.2113 20.2425 22.5179 24 22.5179C27.7576 22.5179 30.913 23.2113 33.4531 24.1005C33.9742 24.283 34.2747 24.8801 34.1317 25.4135L32.1992 32.6234C31.9135 33.6903 32.5464 34.7866 33.6133 35.0726L37.4766 36.1078C38.5435 36.3935 39.6398 35.7606 39.9258 34.6937L40.1836 33.7289C40.3265 33.1945 40.8761 32.8777 41.4102 33.0218L42.375 33.2796C43.4419 33.5654 44.5382 32.9324 44.8242 31.8656L47.9297 20.2757C48.2155 19.2088 47.5825 18.1125 46.5156 17.8265L45.5508 17.5648C45.0184 17.4218 44.7021 16.8749 44.8438 16.3421L45.1016 15.3773C45.3873 14.3104 44.7544 13.2141 43.6875 12.9281L39.8242 11.8929C38.7573 11.6072 37.661 12.2401 37.375 13.307L35.6845 19.6184C35.5416 20.1519 35.0072 20.425 34.4846 20.2466C31.5969 19.2611 28.0699 18.5179 24 18.5179C19.93 18.5179 16.4029 19.2612 13.5153 20.2467C12.9927 20.425 12.4584 20.1519 12.3155 19.6184L10.625 13.307C10.4105 12.5068 9.74068 11.9497 8.96876 11.8421Z" fill="url(#paint0_linear_21_1716)"/>
<defs>
<linearGradient id="paint0_linear_21_1716" x1="36.8686" y1="-7.13122" x2="-9.45475" y2="20.0672" gradientUnits="userSpaceOnUse">
<stop stop-color="#00C8DC"/>
<stop offset="1" stop-color="#0ABE50"/>
</linearGradient>
</defs>
</svg>
