<svg width="152" height="45" viewBox="0 0 152 45" fill="none" xmlns="http://www.w3.org/2000/svg">
<g clip-path="url(#clip0_21_1382)">
<path d="M59.3601 15.7703C58.6403 15.3292 58.0311 14.6675 57.6435 13.8404C57.2559 13.0133 57.0344 12.0208 57.0344 10.9179C57.0344 9.81512 57.2559 8.82258 57.6435 7.99547C58.0311 7.16835 58.6403 6.5618 59.3601 6.12068C60.08 5.67955 60.9659 5.45898 61.9627 5.45898C62.7379 5.45898 63.4577 5.62441 64.0668 5.90011C64.676 6.17582 65.2297 6.61694 65.6173 7.16835C66.0049 7.71976 66.2818 8.32631 66.3925 9.04315V9.09829H64.7313L64.676 8.93287C64.5652 8.49174 64.3991 8.16089 64.1222 7.83005C63.8454 7.55434 63.5685 7.27864 63.1809 7.16835C62.7933 7.00293 62.4056 6.94779 61.9073 6.94779C61.2428 6.94779 60.6891 7.11321 60.1907 7.44406C59.6923 7.7749 59.3047 8.21603 59.0832 8.82258C58.8064 9.42913 58.6956 10.146 58.6956 10.9731C58.6956 11.8002 58.8064 12.517 59.0832 13.1236C59.3601 13.7301 59.7477 14.1713 60.1907 14.5021C60.6891 14.8329 61.2428 14.9984 61.9073 14.9984C62.4056 14.9984 62.7933 14.9432 63.1809 14.7778C63.5685 14.6124 63.8454 14.3918 64.1222 14.061C64.3991 13.7301 64.5652 13.3993 64.7313 12.903V12.8479H66.3925V12.903C66.2818 13.6198 66.0049 14.2264 65.6173 14.7778C65.2297 15.3292 64.676 15.7152 64.0668 16.046C63.4577 16.3218 62.7379 16.4872 61.9627 16.4872C60.9659 16.432 60.08 16.2115 59.3601 15.7703Z" fill="#00141E"/>
<path d="M67.9431 5.62451H69.6043V16.2667H67.9431V5.62451Z" fill="#00141E"/>
<path d="M71.5977 5.62451H75.7507C76.4705 5.62451 77.0796 5.73479 77.6334 6.0105C78.1871 6.2862 78.5747 6.67219 78.8516 7.11332C79.1284 7.60959 79.2946 8.161 79.2946 8.82269C79.2946 9.53952 79.1284 10.2012 78.7408 10.6975C78.3532 11.2489 77.8548 11.6349 77.2457 11.8554L79.6268 16.2116H77.6887L75.5292 12.1311H75.4738H75.4184H73.2589V16.2116H71.5977V5.62451ZM75.5845 10.8078C76.1936 10.8078 76.692 10.6423 77.0796 10.3115C77.4119 9.98065 77.578 9.48438 77.578 8.87783C77.578 8.27128 77.4119 7.83015 77.0243 7.4993C76.6366 7.16846 76.1383 7.00304 75.5292 7.00304H73.2589V10.8078H75.5845Z" fill="#00141E"/>
<path d="M82.8386 15.7703C82.1188 15.3292 81.5097 14.6675 81.1221 13.8404C80.7344 13.0133 80.5129 12.0208 80.5129 10.9179C80.5129 9.81512 80.7344 8.82258 81.1221 7.99547C81.5097 7.16835 82.1188 6.5618 82.8386 6.12068C83.5585 5.67955 84.4445 5.45898 85.4412 5.45898C86.2164 5.45898 86.9363 5.62441 87.5454 5.90011C88.1545 6.17582 88.7082 6.61694 89.0958 7.16835C89.4834 7.71976 89.7603 8.32631 89.871 9.04315V9.09829H88.2098L88.1545 8.93287C88.0437 8.49174 87.8776 8.16089 87.6007 7.83005C87.3239 7.55434 87.047 7.27864 86.6594 7.16835C86.2718 7.00293 85.8842 6.94779 85.3858 6.94779C84.7213 6.94779 84.1676 7.11321 83.6692 7.44406C83.1709 7.7749 82.7833 8.21603 82.5618 8.82258C82.2849 9.42913 82.1741 10.146 82.1741 10.9731C82.1741 11.8002 82.2849 12.517 82.5618 13.1236C82.8386 13.7301 83.2262 14.1713 83.6692 14.5021C84.1676 14.8329 84.7213 14.9984 85.3858 14.9984C85.8842 14.9984 86.2718 14.9432 86.6594 14.7778C87.047 14.6124 87.3239 14.3918 87.6007 14.061C87.8776 13.7301 88.0437 13.3993 88.2098 12.903V12.8479H89.871V12.903C89.7603 13.6198 89.4834 14.2264 89.0958 14.7778C88.7082 15.3292 88.1545 15.7152 87.5454 16.046C86.9363 16.3218 86.2164 16.4872 85.4412 16.4872C84.4445 16.432 83.5585 16.2115 82.8386 15.7703Z" fill="#00141E"/>
<path d="M91.4214 5.62451H93.0826V14.8331H98.0662V16.2667H91.4214V5.62451Z" fill="#00141E"/>
<path d="M99.5059 5.62451H106.261V7.05818H101.167V10.1461H106.04V11.5246H101.167V14.8331H106.261V16.2667H99.5059V5.62451Z" fill="#00141E"/>
<path d="M109.529 16.1012C108.919 15.8806 108.476 15.4946 108.089 15.0535C107.757 14.6123 107.535 14.0609 107.48 13.4544V13.3441H109.086V13.4544C109.141 13.7852 109.252 14.0609 109.473 14.2815C109.695 14.5021 109.972 14.7226 110.359 14.8329C110.747 14.9432 111.134 14.9983 111.633 14.9983C112.131 14.9983 112.519 14.9432 112.851 14.7778C113.183 14.6675 113.46 14.4469 113.626 14.2264C113.792 14.0058 113.903 13.675 113.903 13.3441C113.903 12.903 113.737 12.5721 113.46 12.2964C113.128 12.0207 112.629 11.8553 111.91 11.6899L110.747 11.4693C109.695 11.2487 108.919 10.9179 108.421 10.4216C107.923 9.92537 107.646 9.31882 107.646 8.4917C107.646 7.88515 107.812 7.33374 108.144 6.89261C108.476 6.45149 108.919 6.0655 109.529 5.7898C110.138 5.51409 110.802 5.40381 111.522 5.40381C112.242 5.40381 112.906 5.51409 113.46 5.7898C114.014 6.0655 114.457 6.39635 114.789 6.83747C115.121 7.2786 115.287 7.83001 115.343 8.43656V8.54684H113.737V8.43656C113.682 8.10572 113.571 7.83001 113.349 7.60945C113.128 7.38888 112.906 7.16832 112.574 7.05804C112.242 6.94776 111.854 6.89261 111.467 6.89261C111.024 6.89261 110.636 6.94776 110.304 7.11318C109.972 7.22346 109.75 7.44402 109.529 7.66459C109.362 7.88515 109.252 8.16086 109.252 8.4917C109.252 8.87769 109.418 9.20854 109.75 9.48424C110.082 9.75994 110.581 9.92537 111.245 10.0908L112.408 10.3665C113.128 10.5319 113.737 10.6973 114.18 10.973C114.623 11.2488 115.011 11.5796 115.232 11.9656C115.454 12.3516 115.564 12.8478 115.564 13.3992C115.564 14.0609 115.398 14.6123 115.066 15.1086C114.734 15.6049 114.291 15.9357 113.682 16.2114C113.072 16.4871 112.353 16.5974 111.522 16.5974C110.802 16.432 110.138 16.3217 109.529 16.1012Z" fill="#00141E"/>
<path d="M60.5231 21.3945H61.852V23.159H61.409L58.3635 32.0367H56.5916L60.5231 21.3945ZM58.9726 27.846H63.7901L64.2885 29.1694H58.4742L58.9726 27.846ZM61.409 23.159V21.3945H62.295L66.1712 32.0367H64.3992L61.409 23.159Z" fill="#00141E"/>
<path d="M68.8291 31.8717C68.22 31.6511 67.777 31.2651 67.3894 30.824C67.0571 30.3829 66.8356 29.8315 66.7803 29.2249V29.1146H68.3861V29.2249C68.4415 29.5558 68.5522 29.8315 68.7737 30.052C68.9952 30.2726 69.2721 30.4932 69.6597 30.6035C70.0473 30.7137 70.4349 30.7689 70.9333 30.7689C71.4316 30.7689 71.8193 30.7137 72.1515 30.5483C72.4837 30.438 72.7606 30.2175 72.9267 29.9969C73.0928 29.7763 73.2036 29.4455 73.2036 29.1146C73.2036 28.6735 73.0375 28.3427 72.7606 28.1221C72.4284 27.8464 71.93 27.681 71.2102 27.5156L70.0473 27.295C68.9952 27.0744 68.22 26.7436 67.7216 26.2473C67.2233 25.751 66.9464 25.1445 66.9464 24.3174C66.9464 23.7108 67.1125 23.1594 67.4448 22.7183C67.777 22.2772 68.22 21.8912 68.8291 21.6155C69.4382 21.3398 70.1027 21.2295 70.8225 21.2295C71.5424 21.2295 72.2069 21.3398 72.7606 21.6155C73.3143 21.8912 73.7573 22.222 74.0896 22.6632C74.4218 23.1043 74.5879 23.6557 74.6433 24.2622V24.3725H73.0375V24.2622C72.9821 23.9314 72.8713 23.6557 72.6499 23.4351C72.4284 23.2146 72.2069 22.994 71.8746 22.8837C71.5424 22.7734 71.1548 22.7183 70.7672 22.7183C70.3242 22.7183 69.9366 22.7734 69.6043 22.9389C69.2721 23.0491 69.0506 23.2697 68.8291 23.4903C68.663 23.7108 68.5522 23.9865 68.5522 24.3174C68.5522 24.7034 68.7183 25.0342 69.0506 25.3099C69.3828 25.5856 69.8812 25.7511 70.5457 25.9165L71.7085 26.1922C72.4284 26.3576 73.0375 26.5782 73.4805 26.7987C73.9234 27.0744 74.3111 27.4053 74.5326 27.7913C74.754 28.1773 74.8648 28.6735 74.8648 29.2249C74.8648 29.8866 74.6987 30.438 74.3664 30.9343C74.0342 31.4306 73.5912 31.7614 72.9821 32.0371C72.373 32.3128 71.6531 32.4231 70.8225 32.4231C70.1027 32.2025 69.4382 32.0923 68.8291 31.8717Z" fill="#00141E"/>
<path d="M78.021 31.8717C77.4119 31.6511 76.9689 31.2651 76.5813 30.824C76.1937 30.3829 76.0275 29.8315 75.9722 29.2249V29.1146H77.578V29.2249C77.6334 29.5558 77.7441 29.8315 77.9656 30.052C78.1871 30.2726 78.464 30.4932 78.8516 30.6035C79.2392 30.7137 79.6268 30.7689 80.1252 30.7689C80.6235 30.7689 81.0111 30.7137 81.3434 30.5483C81.6756 30.438 81.9525 30.2175 82.1186 29.9969C82.2847 29.7763 82.3955 29.4455 82.3955 29.1146C82.3955 28.6735 82.2294 28.3427 81.9525 28.1221C81.6203 27.8464 81.1219 27.681 80.402 27.5156L79.2392 27.295C78.1871 27.0744 77.4119 26.7436 76.9135 26.2473C76.4152 25.751 76.1383 25.1445 76.1383 24.3174C76.1383 23.7108 76.3044 23.1594 76.6366 22.7183C76.9689 22.2772 77.4119 21.8912 78.021 21.6155C78.6301 21.3398 79.2946 21.2295 80.0144 21.2295C80.7343 21.2295 81.3988 21.3398 81.9525 21.6155C82.5062 21.8912 82.9492 22.222 83.2815 22.6632C83.6137 23.1043 83.7798 23.6557 83.8352 24.2622V24.3725H82.2294V24.2622C82.174 23.9314 82.0632 23.6557 81.8418 23.4351C81.6203 23.2146 81.3988 22.994 81.0665 22.8837C80.7343 22.7734 80.3467 22.7183 79.9591 22.7183C79.5161 22.7183 79.1285 22.7734 78.7962 22.9389C78.464 23.0491 78.2425 23.2697 78.021 23.4903C77.8549 23.7108 77.7441 23.9865 77.7441 24.3174C77.7441 24.7034 77.9102 25.0342 78.2425 25.3099C78.5747 25.5856 79.0731 25.7511 79.7376 25.9165L80.9004 26.1922C81.6203 26.3576 82.2294 26.5782 82.6724 26.7987C83.1153 27.0744 83.503 27.4053 83.7244 27.7913C83.9459 28.1773 84.0567 28.6735 84.0567 29.2249C84.0567 29.8866 83.8906 30.438 83.5583 30.9343C83.2261 31.4306 82.7831 31.7614 82.174 32.0371C81.5649 32.3128 80.845 32.4231 80.0144 32.4231C79.2946 32.2025 78.6301 32.0923 78.021 31.8717Z" fill="#00141E"/>
<path d="M87.656 31.5404C86.8808 31.0993 86.327 30.4376 85.9394 29.6656C85.5518 28.8385 85.3303 27.846 85.3303 26.7431C85.3303 25.6403 85.5518 24.6478 85.9394 23.8207C86.327 22.9936 86.9361 22.387 87.656 21.9459C88.4312 21.5047 89.3172 21.2842 90.3139 21.2842C91.3107 21.2842 92.1966 21.5047 92.9718 21.9459C93.7471 22.387 94.3008 23.0487 94.6884 23.8207C95.076 24.6478 95.2975 25.5852 95.2975 26.7431C95.2975 27.846 95.076 28.8385 94.6884 29.6656C94.3008 30.4927 93.6917 31.0993 92.9718 31.5404C92.252 31.9815 91.3107 32.2021 90.3139 32.2021C89.2618 32.2021 88.3759 31.9815 87.656 31.5404ZM92.0859 30.2722C92.5842 29.9413 92.9718 29.5002 93.2487 28.8936C93.5256 28.2871 93.6363 27.5703 93.6363 26.7431C93.6363 25.916 93.5256 25.1992 93.2487 24.5926C92.9718 23.9861 92.5842 23.545 92.0859 23.2141C91.5875 22.8833 91.0338 22.7178 90.3139 22.7178C89.6494 22.7178 89.0403 22.8833 88.542 23.2141C88.0436 23.545 87.656 23.9861 87.3791 24.5926C87.1023 25.1992 86.9915 25.916 86.9915 26.7431C86.9915 27.5703 87.1023 28.2871 87.3791 28.8936C87.656 29.5002 88.0436 29.9413 88.542 30.2722C89.0403 30.603 89.6494 30.7684 90.3139 30.7684C90.9784 30.7684 91.5875 30.603 92.0859 30.2722Z" fill="#00141E"/>
<path d="M98.8416 31.5409C98.1217 31.0997 97.5126 30.438 97.125 29.6109C96.7374 28.7838 96.5159 27.7913 96.5159 26.6884C96.5159 25.5856 96.7374 24.5931 97.125 23.766C97.5126 22.9389 98.1217 22.3323 98.8416 21.8912C99.5614 21.4501 100.447 21.2295 101.444 21.2295C102.219 21.2295 102.939 21.3949 103.548 21.6706C104.157 21.9463 104.711 22.3875 105.099 22.9389C105.486 23.4903 105.763 24.0968 105.874 24.8137V24.8688H104.213L104.157 24.7034C104.047 24.2622 103.881 23.9314 103.604 23.6006C103.327 23.3248 103.05 23.0491 102.662 22.9389C102.275 22.7734 101.887 22.7183 101.389 22.7183C100.724 22.7183 100.171 22.8837 99.6722 23.2146C99.1738 23.5454 98.7862 23.9865 98.5647 24.5931C98.2878 25.1996 98.1771 25.9165 98.1771 26.7436C98.1771 27.5707 98.2878 28.2875 98.5647 28.8941C98.8416 29.5006 99.2292 29.9418 99.6722 30.2726C100.171 30.6035 100.724 30.7689 101.389 30.7689C101.887 30.7689 102.275 30.7137 102.662 30.5483C103.05 30.3829 103.327 30.1623 103.604 29.8315C103.881 29.5006 104.047 29.1698 104.213 28.6735V28.6184H105.874V28.6735C105.763 29.3904 105.486 29.9969 105.099 30.5483C104.711 31.0997 104.157 31.4857 103.548 31.8166C102.939 32.0923 102.219 32.2577 101.444 32.2577C100.447 32.2025 99.5614 31.982 98.8416 31.5409Z" fill="#00141E"/>
<path d="M107.424 21.3945H109.086V32.0367H107.424V21.3945Z" fill="#00141E"/>
<path d="M114.125 21.3945H115.454V23.159H115.011L111.965 32.0367H110.193L114.125 21.3945ZM112.63 27.846H117.447L117.945 29.1694H112.131L112.63 27.846ZM115.066 23.159V21.3945H115.952L119.828 32.0367H118.056L115.066 23.159Z" fill="#00141E"/>
<path d="M122.154 22.8282H118.887V21.3945H127.082V22.8282H123.815V32.0367H122.154V22.8282Z" fill="#00141E"/>
<path d="M128.466 21.3945H130.128V32.0367H128.466V21.3945Z" fill="#00141E"/>
<path d="M134.004 31.5404C133.228 31.0993 132.675 30.4376 132.287 29.6656C131.899 28.8385 131.678 27.846 131.678 26.7431C131.678 25.6403 131.899 24.6478 132.287 23.8207C132.675 22.9936 133.284 22.387 134.004 21.9459C134.779 21.5047 135.665 21.2842 136.662 21.2842C137.658 21.2842 138.544 21.5047 139.32 21.9459C140.095 22.387 140.648 23.0487 141.036 23.8207C141.424 24.6478 141.645 25.5852 141.645 26.7431C141.645 27.846 141.424 28.8385 141.036 29.6656C140.648 30.4927 140.039 31.0993 139.32 31.5404C138.6 31.9815 137.658 32.2021 136.662 32.2021C135.665 32.2021 134.779 31.9815 134.004 31.5404ZM138.434 30.2722C138.932 29.9413 139.32 29.5002 139.596 28.8936C139.873 28.2871 139.984 27.5703 139.984 26.7431C139.984 25.916 139.873 25.1992 139.596 24.5926C139.32 23.9861 138.932 23.545 138.434 23.2141C137.935 22.8833 137.381 22.7178 136.662 22.7178C135.997 22.7178 135.388 22.8833 134.89 23.2141C134.391 23.545 134.004 23.9861 133.727 24.5926C133.45 25.1992 133.339 25.916 133.339 26.7431C133.339 27.5703 133.45 28.2871 133.727 28.8936C134.004 29.5002 134.391 29.9413 134.89 30.2722C135.388 30.603 135.997 30.7684 136.662 30.7684C137.381 30.7684 137.991 30.603 138.434 30.2722Z" fill="#00141E"/>
<path d="M143.251 21.3945H144.801L151.391 30.7685L149.619 29.2245H150.339V21.3945H152V32.0367H150.45L143.86 22.6076L145.632 24.1516H144.912V32.0367H143.251V21.3945Z" fill="#00141E"/>
<path d="M32.2826 18.2519C34.4539 18.2519 36.2141 16.4991 36.2141 14.3369C36.2141 12.1747 34.4539 10.4219 32.2826 10.4219C30.1113 10.4219 28.3511 12.1747 28.3511 14.3369C28.3511 16.4991 30.1113 18.2519 32.2826 18.2519Z" fill="url(#paint0_linear_21_1382)"/>
<path d="M24.5303 25.4753C26.5793 25.4753 28.2403 23.8213 28.2403 21.7809C28.2403 19.7405 26.5793 18.0864 24.5303 18.0864C22.4813 18.0864 20.8203 19.7405 20.8203 21.7809C20.8203 23.8213 22.4813 25.4753 24.5303 25.4753Z" fill="url(#paint1_linear_21_1382)"/>
<path d="M41.1979 10.4217C43.1857 10.4217 44.7972 8.81706 44.7972 6.83758C44.7972 4.8581 43.1857 3.25342 41.1979 3.25342C39.2101 3.25342 37.5986 4.8581 37.5986 6.83758C37.5986 8.81706 39.2101 10.4217 41.1979 10.4217Z" fill="url(#paint2_linear_21_1382)"/>
<path d="M15.5599 32.6985C16.9666 32.6985 18.107 31.5628 18.107 30.162C18.107 28.7611 16.9666 27.6255 15.5599 27.6255C14.1531 27.6255 13.0127 28.7611 13.0127 30.162C13.0127 31.5628 14.1531 32.6985 15.5599 32.6985Z" fill="url(#paint3_linear_21_1382)"/>
<path d="M34.3868 31.9265C35.7935 31.9265 36.934 30.7909 36.934 29.39C36.934 27.9891 35.7935 26.8535 34.3868 26.8535C32.98 26.8535 31.8396 27.9891 31.8396 29.39C31.8396 30.7909 32.98 31.9265 34.3868 31.9265Z" fill="url(#paint4_linear_21_1382)"/>
<path d="M19.3807 28.4529C20.7569 28.4529 21.8725 27.342 21.8725 25.9716C21.8725 24.6012 20.7569 23.4902 19.3807 23.4902C18.0045 23.4902 16.8889 24.6012 16.8889 25.9716C16.8889 27.342 18.0045 28.4529 19.3807 28.4529Z" fill="url(#paint5_linear_21_1382)"/>
<path d="M28.5728 28.2324C29.6737 28.2324 30.5662 27.3436 30.5662 26.2473C30.5662 25.151 29.6737 24.2622 28.5728 24.2622C27.4718 24.2622 26.5793 25.151 26.5793 26.2473C26.5793 27.3436 27.4718 28.2324 28.5728 28.2324Z" fill="url(#paint6_linear_21_1382)"/>
<path d="M26.081 17.7555C27.0902 17.7555 27.9083 16.9408 27.9083 15.9359C27.9083 14.9309 27.0902 14.1162 26.081 14.1162C25.0718 14.1162 24.2537 14.9309 24.2537 15.9359C24.2537 16.9408 25.0718 17.7555 26.081 17.7555Z" fill="url(#paint7_linear_21_1382)"/>
<path d="M9.4134 35.8417C10.3309 35.8417 11.0746 35.101 11.0746 34.1874C11.0746 33.2738 10.3309 32.5332 9.4134 32.5332C8.49594 32.5332 7.7522 33.2738 7.7522 34.1874C7.7522 35.101 8.49594 35.8417 9.4134 35.8417Z" fill="url(#paint8_linear_21_1382)"/>
<path d="M26.2471 4.85233C27.1951 4.85233 27.9637 4.08702 27.9637 3.14296C27.9637 2.1989 27.1951 1.43359 26.2471 1.43359C25.2991 1.43359 24.5305 2.1989 24.5305 3.14296C24.5305 4.08702 25.2991 4.85233 26.2471 4.85233Z" fill="url(#paint9_linear_21_1382)"/>
<path d="M29.0711 7.55448C30.0191 7.55448 30.7876 6.78917 30.7876 5.84511C30.7876 4.90105 30.0191 4.13574 29.0711 4.13574C28.123 4.13574 27.3545 4.90105 27.3545 5.84511C27.3545 6.78917 28.123 7.55448 29.0711 7.55448Z" fill="url(#paint10_linear_21_1382)"/>
<path d="M37.1001 12.2965C37.8952 12.2965 38.5398 11.6547 38.5398 10.8629C38.5398 10.0711 37.8952 9.4292 37.1001 9.4292C36.305 9.4292 35.6604 10.0711 35.6604 10.8629C35.6604 11.6547 36.305 12.2965 37.1001 12.2965Z" fill="url(#paint11_linear_21_1382)"/>
<path d="M29.1263 33.6909C30.1967 33.6909 31.0644 32.8269 31.0644 31.761C31.0644 30.6951 30.1967 29.8311 29.1263 29.8311C28.0559 29.8311 27.1882 30.6951 27.1882 31.761C27.1882 32.8269 28.0559 33.6909 29.1263 33.6909Z" fill="url(#paint12_linear_21_1382)"/>
<path d="M12.7359 34.3526C13.3475 34.3526 13.8434 33.8589 13.8434 33.2498C13.8434 32.6407 13.3475 32.147 12.7359 32.147C12.1242 32.147 11.6284 32.6407 11.6284 33.2498C11.6284 33.8589 12.1242 34.3526 12.7359 34.3526Z" fill="url(#paint13_linear_21_1382)"/>
<path d="M6.31256 38.2678C7.07711 38.2678 7.69689 37.6506 7.69689 36.8893C7.69689 36.1279 7.07711 35.5107 6.31256 35.5107C5.54801 35.5107 4.92822 36.1279 4.92822 36.8893C4.92822 37.6506 5.54801 38.2678 6.31256 38.2678Z" fill="url(#paint14_linear_21_1382)"/>
<path d="M24.918 35.0143C25.7131 35.0143 26.3577 34.3724 26.3577 33.5806C26.3577 32.7888 25.7131 32.147 24.918 32.147C24.1229 32.147 23.4783 32.7888 23.4783 33.5806C23.4783 34.3724 24.1229 35.0143 24.918 35.0143Z" fill="url(#paint15_linear_21_1382)"/>
<path d="M22.9247 3.08768C23.6586 3.08768 24.2536 2.49519 24.2536 1.7643C24.2536 1.03342 23.6586 0.440918 22.9247 0.440918C22.1907 0.440918 21.5957 1.03342 21.5957 1.7643C21.5957 2.49519 22.1907 3.08768 22.9247 3.08768Z" fill="url(#paint16_linear_21_1382)"/>
<path d="M29.1817 10.8078C29.9462 10.8078 30.566 10.1906 30.566 9.42931C30.566 8.66797 29.9462 8.05078 29.1817 8.05078C28.4172 8.05078 27.7974 8.66797 27.7974 9.42931C27.7974 10.1906 28.4172 10.8078 29.1817 10.8078Z" fill="url(#paint17_linear_21_1382)"/>
<path d="M33.0025 9.98075C33.9505 9.98075 34.719 9.21544 34.719 8.27138C34.719 7.32732 33.9505 6.56201 33.0025 6.56201C32.0544 6.56201 31.2859 7.32732 31.2859 8.27138C31.2859 9.21544 32.0544 9.98075 33.0025 9.98075Z" fill="url(#paint18_linear_21_1382)"/>
<path d="M38.7059 22.0013C39.4399 22.0013 40.0349 21.4088 40.0349 20.6779C40.0349 19.947 39.4399 19.3545 38.7059 19.3545C37.972 19.3545 37.377 19.947 37.377 20.6779C37.377 21.4088 37.972 22.0013 38.7059 22.0013Z" fill="url(#paint19_linear_21_1382)"/>
<path d="M45.5169 19.2444C46.2509 19.2444 46.8459 18.6519 46.8459 17.921C46.8459 17.1902 46.2509 16.5977 45.5169 16.5977C44.783 16.5977 44.188 17.1902 44.188 17.921C44.188 18.6519 44.783 19.2444 45.5169 19.2444Z" fill="url(#paint20_linear_21_1382)"/>
<path d="M44.2986 20.8984C44.7573 20.8984 45.1292 20.5281 45.1292 20.0713C45.1292 19.6145 44.7573 19.2441 44.2986 19.2441C43.8399 19.2441 43.468 19.6145 43.468 20.0713C43.468 20.5281 43.8399 20.8984 44.2986 20.8984Z" fill="url(#paint21_linear_21_1382)"/>
<path d="M37.4325 19.4649C38.4723 19.4649 39.3152 18.6255 39.3152 17.5901C39.3152 16.5547 38.4723 15.7153 37.4325 15.7153C36.3927 15.7153 35.5498 16.5547 35.5498 17.5901C35.5498 18.6255 36.3927 19.4649 37.4325 19.4649Z" fill="url(#paint22_linear_21_1382)"/>
<path d="M42.0839 23.9864C43.1237 23.9864 43.9666 23.147 43.9666 22.1116C43.9666 21.0762 43.1237 20.2368 42.0839 20.2368C41.0441 20.2368 40.2012 21.0762 40.2012 22.1116C40.2012 23.147 41.0441 23.9864 42.0839 23.9864Z" fill="url(#paint23_linear_21_1382)"/>
<path d="M20.2666 2.48131C20.7559 2.48131 21.1526 2.08631 21.1526 1.59905C21.1526 1.1118 20.7559 0.716797 20.2666 0.716797C19.7773 0.716797 19.3806 1.1118 19.3806 1.59905C19.3806 2.08631 19.7773 2.48131 20.2666 2.48131Z" fill="url(#paint24_linear_21_1382)"/>
<path d="M14.6741 2.48131C15.1634 2.48131 15.56 2.08631 15.56 1.59905C15.56 1.1118 15.1634 0.716797 14.6741 0.716797C14.1848 0.716797 13.7881 1.1118 13.7881 1.59905C13.7881 2.08631 14.1848 2.48131 14.6741 2.48131Z" fill="url(#paint25_linear_21_1382)"/>
<path d="M12.9573 2.15067C13.2631 2.15067 13.511 1.9038 13.511 1.59926C13.511 1.29473 13.2631 1.04785 12.9573 1.04785C12.6515 1.04785 12.4036 1.29473 12.4036 1.59926C12.4036 1.9038 12.6515 2.15067 12.9573 2.15067Z" fill="url(#paint26_linear_21_1382)"/>
<path d="M1.60571 44.3335C2.24793 44.3335 2.76855 43.8151 2.76855 43.1755C2.76855 42.536 2.24793 42.0176 1.60571 42.0176C0.963493 42.0176 0.442871 42.536 0.442871 43.1755C0.442871 43.8151 0.963493 44.3335 1.60571 44.3335Z" fill="url(#paint27_linear_21_1382)"/>
<path d="M26.856 13.7854C27.6206 13.7854 28.2404 13.1682 28.2404 12.4068C28.2404 11.6455 27.6206 11.0283 26.856 11.0283C26.0915 11.0283 25.4717 11.6455 25.4717 12.4068C25.4717 13.1682 26.0915 13.7854 26.856 13.7854Z" fill="url(#paint28_linear_21_1382)"/>
<path d="M17.3318 2.75705C18.0964 2.75705 18.7162 2.13986 18.7162 1.37852C18.7162 0.617186 18.0964 0 17.3318 0C16.5673 0 15.9475 0.617186 15.9475 1.37852C15.9475 2.13986 16.5673 2.75705 17.3318 2.75705Z" fill="url(#paint29_linear_21_1382)"/>
<path d="M3.82085 39.481C4.43248 39.481 4.92831 38.9873 4.92831 38.3782C4.92831 37.7691 4.43248 37.2754 3.82085 37.2754C3.20921 37.2754 2.71338 37.7691 2.71338 38.3782C2.71338 38.9873 3.20921 39.481 3.82085 39.481Z" fill="url(#paint30_linear_21_1382)"/>
<path d="M32.2826 27.0741C32.986 27.0741 33.5562 26.5063 33.5562 25.8058C33.5562 25.1054 32.986 24.5376 32.2826 24.5376C31.5792 24.5376 31.009 25.1054 31.009 25.8058C31.009 26.5063 31.5792 27.0741 32.2826 27.0741Z" fill="url(#paint31_linear_21_1382)"/>
<path d="M22.2047 36.0622C22.7857 36.0622 23.2568 35.5931 23.2568 35.0145C23.2568 34.4359 22.7857 33.9668 22.2047 33.9668C21.6236 33.9668 21.1526 34.4359 21.1526 35.0145C21.1526 35.5931 21.6236 36.0622 22.2047 36.0622Z" fill="url(#paint32_linear_21_1382)"/>
<path d="M20.2666 39.4259C21.0617 39.4259 21.7063 38.784 21.7063 37.9923C21.7063 37.2005 21.0617 36.5586 20.2666 36.5586C19.4715 36.5586 18.8269 37.2005 18.8269 37.9923C18.8269 38.784 19.4715 39.4259 20.2666 39.4259Z" fill="url(#paint33_linear_21_1382)"/>
<path d="M1.16284 41.7969C1.80506 41.7969 2.32568 41.2784 2.32568 40.6389C2.32568 39.9994 1.80506 39.481 1.16284 39.481C0.520622 39.481 0 39.9994 0 40.6389C0 41.2784 0.520622 41.7969 1.16284 41.7969Z" fill="url(#paint34_linear_21_1382)"/>
<path d="M29.1817 20.4573C29.9157 20.4573 30.5107 19.8648 30.5107 19.1339C30.5107 18.403 29.9157 17.8105 29.1817 17.8105C28.4478 17.8105 27.8528 18.403 27.8528 19.1339C27.8528 19.8648 28.4478 20.4573 29.1817 20.4573Z" fill="url(#paint35_linear_21_1382)"/>
<path d="M47.0121 16.8732C47.3791 16.8732 47.6766 16.5769 47.6766 16.2115C47.6766 15.8461 47.3791 15.5498 47.0121 15.5498C46.6452 15.5498 46.3477 15.8461 46.3477 16.2115C46.3477 16.5769 46.6452 16.8732 47.0121 16.8732Z" fill="url(#paint36_linear_21_1382)"/>
<path d="M48.1195 13.2338C48.3642 13.2338 48.5625 13.0363 48.5625 12.7927C48.5625 12.5491 48.3642 12.3516 48.1195 12.3516C47.8748 12.3516 47.6765 12.5491 47.6765 12.7927C47.6765 13.0363 47.8748 13.2338 48.1195 13.2338Z" fill="url(#paint37_linear_21_1382)"/>
<path d="M47.1781 15.3293C47.7286 15.3293 48.1748 14.8849 48.1748 14.3368C48.1748 13.7886 47.7286 13.3442 47.1781 13.3442C46.6276 13.3442 46.1814 13.7886 46.1814 14.3368C46.1814 14.8849 46.6276 15.3293 47.1781 15.3293Z" fill="url(#paint38_linear_21_1382)"/>
<path d="M26.0255 37.9922C26.7454 37.9922 27.3545 38.5436 27.3545 39.3156C27.3545 40.0875 26.7454 40.639 26.0255 40.639C25.3056 40.639 24.6965 40.0875 24.6965 39.3156C24.6965 38.5436 25.3056 37.9922 26.0255 37.9922ZM26.0255 38.2679C25.4718 38.2679 25.0288 38.709 25.0288 39.3156C25.0288 39.867 25.4718 40.3632 26.0255 40.3632C26.5792 40.3632 27.0222 39.9221 27.0222 39.3156C27.0222 38.7642 26.6346 38.2679 26.0255 38.2679ZM25.804 39.9773H25.5271V38.6539C25.6379 38.6539 25.804 38.5987 26.0255 38.5987C26.247 38.5987 26.3577 38.6539 26.4685 38.709C26.5239 38.7642 26.5792 38.8744 26.5792 38.9847C26.5792 39.1501 26.4685 39.2604 26.3024 39.3156C26.4131 39.3707 26.4685 39.481 26.5239 39.6464C26.5792 39.867 26.5792 39.9221 26.6346 39.9773H26.3024C26.247 39.9221 26.247 39.8118 26.1916 39.6464C26.1916 39.5361 26.0809 39.4259 25.9147 39.4259H25.7486V39.9773H25.804ZM25.8594 39.2604H26.0255C26.1916 39.2604 26.3024 39.2053 26.3024 39.095C26.3024 38.9847 26.1916 38.8744 26.0255 38.8744C25.9701 38.8744 25.9147 38.8744 25.8594 38.8744V39.2604Z" fill="url(#paint39_linear_21_1382)"/>
</g>
<defs>
<linearGradient id="paint0_linear_21_1382" x1="52.2094" y1="-9.30695" x2="2.69147" y2="49.955" gradientUnits="userSpaceOnUse">
<stop stop-color="#00C8DC"/>
<stop offset="1" stop-color="#0ABE50"/>
</linearGradient>
<linearGradient id="paint1_linear_21_1382" x1="51.3294" y1="-10.0244" x2="1.81143" y2="49.2375" gradientUnits="userSpaceOnUse">
<stop stop-color="#00C8DC"/>
<stop offset="1" stop-color="#0ABE50"/>
</linearGradient>
<linearGradient id="paint2_linear_21_1382" x1="53.6386" y1="-7.91003" x2="4.12068" y2="51.3519" gradientUnits="userSpaceOnUse">
<stop stop-color="#00C8DC"/>
<stop offset="1" stop-color="#0ABE50"/>
</linearGradient>
<linearGradient id="paint3_linear_21_1382" x1="50.2238" y1="-10.9781" x2="0.705828" y2="48.2838" gradientUnits="userSpaceOnUse">
<stop stop-color="#00C8DC"/>
<stop offset="1" stop-color="#0ABE50"/>
</linearGradient>
<linearGradient id="paint4_linear_21_1382" x1="59.1232" y1="0.0502807" x2="9.60526" y2="59.3122" gradientUnits="userSpaceOnUse">
<stop stop-color="#00C8DC"/>
<stop offset="1" stop-color="#0ABE50"/>
</linearGradient>
<linearGradient id="paint5_linear_21_1382" x1="50.4725" y1="-10.8785" x2="0.95454" y2="48.3835" gradientUnits="userSpaceOnUse">
<stop stop-color="#00C8DC"/>
<stop offset="1" stop-color="#0ABE50"/>
</linearGradient>
<linearGradient id="paint6_linear_21_1382" x1="55.049" y1="-5.1764" x2="5.53112" y2="54.0855" gradientUnits="userSpaceOnUse">
<stop stop-color="#00C8DC"/>
<stop offset="1" stop-color="#0ABE50"/>
</linearGradient>
<linearGradient id="paint7_linear_21_1382" x1="49.8178" y1="-12.2002" x2="0.299861" y2="47.0618" gradientUnits="userSpaceOnUse">
<stop stop-color="#00C8DC"/>
<stop offset="1" stop-color="#0ABE50"/>
</linearGradient>
<linearGradient id="paint8_linear_21_1382" x1="48.7886" y1="-12.5571" x2="-0.729368" y2="46.7049" gradientUnits="userSpaceOnUse">
<stop stop-color="#00C8DC"/>
<stop offset="1" stop-color="#0ABE50"/>
</linearGradient>
<linearGradient id="paint9_linear_21_1382" x1="44.8868" y1="-18.9798" x2="-4.63107" y2="40.2822" gradientUnits="userSpaceOnUse">
<stop stop-color="#00C8DC"/>
<stop offset="1" stop-color="#0ABE50"/>
</linearGradient>
<linearGradient id="paint10_linear_21_1382" x1="47.3165" y1="-15.8223" x2="-2.20143" y2="43.4397" gradientUnits="userSpaceOnUse">
<stop stop-color="#00C8DC"/>
<stop offset="1" stop-color="#0ABE50"/>
</linearGradient>
<linearGradient id="paint11_linear_21_1382" x1="53.2043" y1="-8.24513" x2="3.68639" y2="51.0168" gradientUnits="userSpaceOnUse">
<stop stop-color="#00C8DC"/>
<stop offset="1" stop-color="#0ABE50"/>
</linearGradient>
<linearGradient id="paint12_linear_21_1382" x1="57.4531" y1="-1.90841" x2="7.93521" y2="57.3535" gradientUnits="userSpaceOnUse">
<stop stop-color="#00C8DC"/>
<stop offset="1" stop-color="#0ABE50"/>
</linearGradient>
<linearGradient id="paint13_linear_21_1382" x1="50.057" y1="-11.0292" x2="0.539095" y2="48.2328" gradientUnits="userSpaceOnUse">
<stop stop-color="#00C8DC"/>
<stop offset="1" stop-color="#0ABE50"/>
</linearGradient>
<linearGradient id="paint14_linear_21_1382" x1="48.3267" y1="-12.9959" x2="-1.19122" y2="46.2661" gradientUnits="userSpaceOnUse">
<stop stop-color="#00C8DC"/>
<stop offset="1" stop-color="#0ABE50"/>
</linearGradient>
<linearGradient id="paint15_linear_21_1382" x1="56.1274" y1="-3.46378" x2="6.60938" y2="55.7981" gradientUnits="userSpaceOnUse">
<stop stop-color="#00C8DC"/>
<stop offset="1" stop-color="#0ABE50"/>
</linearGradient>
<linearGradient id="paint16_linear_21_1382" x1="42.7308" y1="-21.7286" x2="-6.78707" y2="37.5333" gradientUnits="userSpaceOnUse">
<stop stop-color="#00C8DC"/>
<stop offset="1" stop-color="#0ABE50"/>
</linearGradient>
<linearGradient id="paint17_linear_21_1382" x1="48.7719" y1="-13.8293" x2="-0.74604" y2="45.4327" gradientUnits="userSpaceOnUse">
<stop stop-color="#00C8DC"/>
<stop offset="1" stop-color="#0ABE50"/>
</linearGradient>
<linearGradient id="paint18_linear_21_1382" x1="50.1883" y1="-12.1271" x2="0.670356" y2="47.1348" gradientUnits="userSpaceOnUse">
<stop stop-color="#00C8DC"/>
<stop offset="1" stop-color="#0ABE50"/>
</linearGradient>
<linearGradient id="paint19_linear_21_1382" x1="57.8376" y1="-1.98904" x2="8.31962" y2="57.2729" gradientUnits="userSpaceOnUse">
<stop stop-color="#00C8DC"/>
<stop offset="1" stop-color="#0ABE50"/>
</linearGradient>
<linearGradient id="paint20_linear_21_1382" x1="60.0736" y1="0.652873" x2="10.5556" y2="59.9148" gradientUnits="userSpaceOnUse">
<stop stop-color="#00C8DC"/>
<stop offset="1" stop-color="#0ABE50"/>
</linearGradient>
<linearGradient id="paint21_linear_21_1382" x1="60.3076" y1="1.05165" x2="10.7896" y2="60.3136" gradientUnits="userSpaceOnUse">
<stop stop-color="#00C8DC"/>
<stop offset="1" stop-color="#0ABE50"/>
</linearGradient>
<linearGradient id="paint22_linear_21_1382" x1="55.9737" y1="-4.46433" x2="6.45584" y2="54.7976" gradientUnits="userSpaceOnUse">
<stop stop-color="#00C8DC"/>
<stop offset="1" stop-color="#0ABE50"/>
</linearGradient>
<linearGradient id="paint23_linear_21_1382" x1="60.0214" y1="0.797261" x2="10.5035" y2="60.0592" gradientUnits="userSpaceOnUse">
<stop stop-color="#00C8DC"/>
<stop offset="1" stop-color="#0ABE50"/>
</linearGradient>
<linearGradient id="paint24_linear_21_1382" x1="41.3716" y1="-23.4282" x2="-8.14629" y2="35.8338" gradientUnits="userSpaceOnUse">
<stop stop-color="#00C8DC"/>
<stop offset="1" stop-color="#0ABE50"/>
</linearGradient>
<linearGradient id="paint25_linear_21_1382" x1="38.6225" y1="-26.8467" x2="-10.8955" y2="32.4153" gradientUnits="userSpaceOnUse">
<stop stop-color="#00C8DC"/>
<stop offset="1" stop-color="#0ABE50"/>
</linearGradient>
<linearGradient id="paint26_linear_21_1382" x1="37.7871" y1="-27.8848" x2="-11.7308" y2="31.3771" gradientUnits="userSpaceOnUse">
<stop stop-color="#00C8DC"/>
<stop offset="1" stop-color="#0ABE50"/>
</linearGradient>
<linearGradient id="paint27_linear_21_1382" x1="48.5177" y1="-12.4385" x2="-1.0003" y2="46.8234" gradientUnits="userSpaceOnUse">
<stop stop-color="#00C8DC"/>
<stop offset="1" stop-color="#0ABE50"/>
</linearGradient>
<linearGradient id="paint28_linear_21_1382" x1="48.7987" y1="-13.6457" x2="-0.719293" y2="45.6162" gradientUnits="userSpaceOnUse">
<stop stop-color="#00C8DC"/>
<stop offset="1" stop-color="#0ABE50"/>
</linearGradient>
<linearGradient id="paint29_linear_21_1382" x1="39.8574" y1="-25.3205" x2="-9.66055" y2="33.9415" gradientUnits="userSpaceOnUse">
<stop stop-color="#00C8DC"/>
<stop offset="1" stop-color="#0ABE50"/>
</linearGradient>
<linearGradient id="paint30_linear_21_1382" x1="47.6903" y1="-13.7129" x2="-1.82766" y2="45.5491" gradientUnits="userSpaceOnUse">
<stop stop-color="#00C8DC"/>
<stop offset="1" stop-color="#0ABE50"/>
</linearGradient>
<linearGradient id="paint31_linear_21_1382" x1="56.6872" y1="-3.16014" x2="7.16928" y2="56.1018" gradientUnits="userSpaceOnUse">
<stop stop-color="#00C8DC"/>
<stop offset="1" stop-color="#0ABE50"/>
</linearGradient>
<linearGradient id="paint32_linear_21_1382" x1="55.3609" y1="-4.34363" x2="5.84298" y2="54.9183" gradientUnits="userSpaceOnUse">
<stop stop-color="#00C8DC"/>
<stop offset="1" stop-color="#0ABE50"/>
</linearGradient>
<linearGradient id="paint33_linear_21_1382" x1="55.5734" y1="-3.92913" x2="6.05549" y2="55.3328" gradientUnits="userSpaceOnUse">
<stop stop-color="#00C8DC"/>
<stop offset="1" stop-color="#0ABE50"/>
</linearGradient>
<linearGradient id="paint34_linear_21_1382" x1="47.2909" y1="-14.0945" x2="-2.22709" y2="45.1674" gradientUnits="userSpaceOnUse">
<stop stop-color="#00C8DC"/>
<stop offset="1" stop-color="#0ABE50"/>
</linearGradient>
<linearGradient id="paint35_linear_21_1382" x1="52.5822" y1="-8.60109" x2="3.06431" y2="50.6608" gradientUnits="userSpaceOnUse">
<stop stop-color="#00C8DC"/>
<stop offset="1" stop-color="#0ABE50"/>
</linearGradient>
<linearGradient id="paint36_linear_21_1382" x1="60.1253" y1="0.627836" x2="10.6075" y2="59.8898" gradientUnits="userSpaceOnUse">
<stop stop-color="#00C8DC"/>
<stop offset="1" stop-color="#0ABE50"/>
</linearGradient>
<linearGradient id="paint37_linear_21_1382" x1="59.3468" y1="-0.511338" x2="9.82885" y2="58.7506" gradientUnits="userSpaceOnUse">
<stop stop-color="#00C8DC"/>
<stop offset="1" stop-color="#0ABE50"/>
</linearGradient>
<linearGradient id="paint38_linear_21_1382" x1="59.4793" y1="-0.267797" x2="9.96143" y2="58.9941" gradientUnits="userSpaceOnUse">
<stop stop-color="#00C8DC"/>
<stop offset="1" stop-color="#0ABE50"/>
</linearGradient>
<linearGradient id="paint39_linear_21_1382" x1="58.7535" y1="0.490467" x2="9.48275" y2="59.4567" gradientUnits="userSpaceOnUse">
<stop stop-color="#00C8DC"/>
<stop offset="1" stop-color="#0ABE50"/>
</linearGradient>
<clipPath id="clip0_21_1382">
<rect width="152" height="44.3333" fill="white"/>
</clipPath>
</defs>
</svg>
