<svg width="25" height="24" viewBox="0 0 25 24" fill="none" xmlns="http://www.w3.org/2000/svg">
<path d="M16.5835 12.71C16.6746 12.6149 16.7459 12.5028 16.7935 12.38C16.8936 12.1365 16.8936 11.8635 16.7935 11.62C16.7459 11.4972 16.6746 11.3851 16.5835 11.29L13.5835 8.29C13.3952 8.1017 13.1398 7.99591 12.8735 7.99591C12.6072 7.99591 12.3518 8.1017 12.1635 8.29C11.9752 8.4783 11.8694 8.7337 11.8694 9C11.8694 9.2663 11.9752 9.5217 12.1635 9.71L13.4635 11L9.87354 11C9.60832 11 9.35397 11.1054 9.16643 11.2929C8.9789 11.4804 8.87354 11.7348 8.87354 12C8.87354 12.2652 8.9789 12.5196 9.16643 12.7071C9.35397 12.8946 9.60832 13 9.87354 13L13.4635 13L12.1635 14.29C12.0698 14.383 11.9954 14.4936 11.9446 14.6154C11.8939 14.7373 11.8677 14.868 11.8677 15C11.8677 15.132 11.8939 15.2627 11.9446 15.3846C11.9954 15.5064 12.0698 15.617 12.1635 15.71C12.2565 15.8037 12.3671 15.8781 12.489 15.9289C12.6108 15.9797 12.7415 16.0058 12.8735 16.0058C13.0056 16.0058 13.1363 15.9797 13.2581 15.9289C13.38 15.8781 13.4906 15.8037 13.5835 15.71L16.5835 12.71ZM22.8735 12C22.8735 10.0222 22.287 8.08879 21.1882 6.4443C20.0894 4.79981 18.5276 3.51808 16.7004 2.7612C14.8731 2.00433 12.8624 1.80629 10.9226 2.19215C8.98283 2.578 7.201 3.53041 5.80247 4.92893C4.40395 6.32746 3.45154 8.10929 3.06569 10.0491C2.67983 11.9889 2.87787 13.9996 3.63474 15.8268C4.39162 17.6541 5.67335 19.2159 7.31784 20.3147C8.96233 21.4135 10.8957 22 12.8735 22C15.5257 22 18.0692 20.9464 19.9446 19.0711C20.8732 18.1425 21.6098 17.0401 22.1123 15.8268C22.6149 14.6136 22.8735 13.3132 22.8735 12ZM4.87354 12C4.87354 10.4177 5.34273 8.87103 6.22178 7.55544C7.10083 6.23985 8.35026 5.21446 9.81207 4.60896C11.2739 4.00346 12.8824 3.84504 14.4343 4.15372C15.9861 4.4624 17.4116 5.22433 18.5304 6.34315C19.6492 7.46197 20.4111 8.88743 20.7198 10.4393C21.0285 11.9911 20.8701 13.5997 20.2646 15.0615C19.6591 16.5233 18.6337 17.7727 17.3181 18.6518C16.0025 19.5308 14.4558 20 12.8735 20C10.7518 20 8.71698 19.1571 7.21669 17.6569C5.71639 16.1566 4.87354 14.1217 4.87354 12Z" fill="url(#paint0_linear_51_3896)"/>
<defs>
<linearGradient id="paint0_linear_51_3896" x1="-12.6932" y1="6.63768" x2="-5.59066" y2="30.4789" gradientUnits="userSpaceOnUse">
<stop stop-color="#00C8DC"/>
<stop offset="1" stop-color="#0ABE50"/>
</linearGradient>
</defs>
</svg>
