<svg width="47" height="47" viewBox="0 0 47 47" fill="none" xmlns="http://www.w3.org/2000/svg">
<g clip-path="url(#clip0_21_1700)">
<path d="M18.4814 27.5058C18.2979 27.3013 18.2533 27.0074 18.367 26.7574C19.8551 23.4863 18.2411 21.6556 18.4018 14.2648C18.4094 13.9139 18.6828 13.5793 19.1208 13.5876C19.4985 13.5948 19.7943 13.9158 19.7861 14.2933C19.7789 14.6219 19.7757 14.9518 19.7761 15.2824C19.7767 15.6656 20.0895 15.9784 20.4727 15.9732C21.5986 15.9578 23.7889 15.587 24.6366 13.0441L25.0582 11.7794C25.8384 9.43883 24.5055 6.9119 22.1083 6.25208L17.7971 5.06546C16.0795 4.59273 14.2196 5.24043 13.1683 6.67705C8.12638 13.5665 4.77894 21.4898 3.35738 29.8823C2.96668 32.1885 4.06271 34.5154 6.0849 35.6723C17.4391 42.1687 30.9021 42.7982 43.1005 37.1148C44.1414 36.6298 44.814 35.5733 44.814 34.4231V22.0523C44.814 21.0658 44.3282 20.1475 43.5142 19.5959C39.138 16.6299 33.5654 16.9851 29.8326 20.9233C29.4999 21.2743 29.6259 21.8497 30.0722 22.0363C31.7585 22.7414 33.3528 23.7658 34.6834 24.9757C34.9727 25.2388 34.993 25.6945 34.7058 25.9809C34.445 26.2409 34.0269 26.2506 33.7537 26.0038C30.267 22.8552 25.5533 21.4227 20.8639 22.9209C20.5762 23.0128 20.3835 23.2851 20.3883 23.587C20.4079 24.8427 20.1983 26.0588 19.6251 27.3326C19.4208 27.7866 18.8137 27.8763 18.4814 27.5058Z" fill="url(#paint0_linear_21_1700)"/>
</g>
<defs>
<linearGradient id="paint0_linear_21_1700" x1="35.1827" y1="-23.1708" x2="-13.0512" y2="-6.62965" gradientUnits="userSpaceOnUse">
<stop stop-color="#00C8DC"/>
<stop offset="1" stop-color="#0ABE50"/>
</linearGradient>
<clipPath id="clip0_21_1700">
<rect width="41.5349" height="41.5349" fill="white" transform="translate(3.27905 2.18604)"/>
</clipPath>
</defs>
</svg>
