<svg width="32" height="32" viewBox="0 0 32 32" fill="none" xmlns="http://www.w3.org/2000/svg">
<path d="M11.6132 10.28L14.6665 7.21336V20C14.6665 20.3536 14.807 20.6928 15.057 20.9428C15.3071 21.1929 15.6462 21.3334 15.9998 21.3334C16.3535 21.3334 16.6926 21.1929 16.9426 20.9428C17.1927 20.6928 17.3332 20.3536 17.3332 20V7.21336L20.3865 10.28C20.5105 10.405 20.6579 10.5042 20.8204 10.5719C20.9829 10.6396 21.1572 10.6744 21.3332 10.6744C21.5092 10.6744 21.6835 10.6396 21.8459 10.5719C22.0084 10.5042 22.1559 10.405 22.2798 10.28C22.4048 10.1561 22.504 10.0086 22.5717 9.84613C22.6394 9.68365 22.6742 9.50937 22.6742 9.33336C22.6742 9.15734 22.6394 8.98307 22.5717 8.82059C22.504 8.65811 22.4048 8.51064 22.2798 8.38669L16.9465 3.05336C16.8197 2.93197 16.6702 2.83682 16.5065 2.77336C16.1819 2.64 15.8178 2.64 15.4932 2.77336C15.3295 2.83682 15.18 2.93197 15.0532 3.05336L9.71984 8.38669C9.59552 8.51101 9.49691 8.6586 9.42962 8.82103C9.36234 8.98346 9.32771 9.15755 9.32771 9.33336C9.32771 9.50917 9.36234 9.68326 9.42962 9.84569C9.49691 10.0081 9.59552 10.1557 9.71984 10.28C9.84416 10.4043 9.99174 10.503 10.1542 10.5702C10.3166 10.6375 10.4907 10.6721 10.6665 10.6721C10.8423 10.6721 11.0164 10.6375 11.1788 10.5702C11.3413 10.503 11.4889 10.4043 11.6132 10.28ZM27.9998 16C27.6462 16 27.3071 16.1405 27.057 16.3905C26.807 16.6406 26.6665 16.9797 26.6665 17.3334V25.3334C26.6665 25.687 26.526 26.0261 26.276 26.2762C26.0259 26.5262 25.6868 26.6667 25.3332 26.6667H6.6665C6.31288 26.6667 5.97374 26.5262 5.7237 26.2762C5.47365 26.0261 5.33317 25.687 5.33317 25.3334V17.3334C5.33317 16.9797 5.19269 16.6406 4.94265 16.3905C4.6926 16.1405 4.35346 16 3.99984 16C3.64622 16 3.30708 16.1405 3.05703 16.3905C2.80698 16.6406 2.6665 16.9797 2.6665 17.3334V25.3334C2.6665 26.3942 3.08793 27.4116 3.83808 28.1618C4.58822 28.9119 5.60564 29.3334 6.6665 29.3334H25.3332C26.394 29.3334 27.4115 28.9119 28.1616 28.1618C28.9117 27.4116 29.3332 26.3942 29.3332 25.3334V17.3334C29.3332 16.9797 29.1927 16.6406 28.9426 16.3905C28.6926 16.1405 28.3535 16 27.9998 16Z" fill="#22C55E"/>
</svg>
