<svg width="37" height="37" viewBox="0 0 37 37" fill="none" xmlns="http://www.w3.org/2000/svg">
<g clip-path="url(#clip0_21_1726)">
<path d="M18.5046 0H18.4954C8.29494 0 0 8.29725 0 18.5C0 22.5469 1.30425 26.2978 3.52194 29.3433L1.21638 36.2161L8.32731 33.9429C11.2526 35.8808 14.7422 37 18.5046 37C28.7051 37 37 28.7004 37 18.5C37 8.29956 28.7051 0 18.5046 0Z" fill="url(#paint0_linear_21_1726)"/>
<path d="M29.2693 26.1243C28.823 27.3846 27.0516 28.4299 25.6387 28.7351C24.672 28.9409 23.4094 29.1051 19.159 27.343C13.7223 25.0906 10.2212 19.5661 9.94834 19.2076C9.68703 18.8492 7.75146 16.2823 7.75146 13.6276C7.75146 10.9728 9.09965 9.68011 9.64309 9.12511C10.0894 8.66955 10.8271 8.46143 11.5347 8.46143C11.7637 8.46143 11.9695 8.47299 12.1545 8.48224C12.6979 8.50536 12.9708 8.53774 13.3292 9.39568C13.7755 10.471 14.8624 13.1257 14.9919 13.3986C15.1237 13.6715 15.2555 14.0415 15.0705 14.3999C14.8971 14.7699 14.7445 14.9341 14.4716 15.2486C14.1987 15.5631 13.9397 15.8036 13.6668 16.1412C13.4171 16.4349 13.135 16.7494 13.4495 17.2929C13.764 17.8247 14.8508 19.5984 16.4511 21.0229C18.5162 22.8614 20.1904 23.4487 20.7893 23.6985C21.2357 23.8835 21.7675 23.8396 22.0936 23.4927C22.5075 23.0464 23.0186 22.3064 23.5389 21.5779C23.9089 21.0553 24.376 20.9906 24.8663 21.1756C25.3658 21.349 28.009 22.6556 28.5524 22.9261C29.0958 23.199 29.4543 23.3285 29.5861 23.5574C29.7156 23.7864 29.7156 24.8617 29.2693 26.1243Z" fill="#FAFAFA"/>
</g>
<defs>
<linearGradient id="paint0_linear_21_1726" x1="28.4203" y1="-28.7984" x2="-15.686" y2="-15.6588" gradientUnits="userSpaceOnUse">
<stop stop-color="#00C8DC"/>
<stop offset="1" stop-color="#0ABE50"/>
</linearGradient>
<clipPath id="clip0_21_1726">
<rect width="37" height="37" fill="white"/>
</clipPath>
</defs>
</svg>
